<?xml version="1.0" encoding="UTF-8"?>
<svg width="24px" height="22px" viewBox="0 0 24 22" version="1.1" xmlns="http://www.w3.org/2000/svg" xmlns:xlink="http://www.w3.org/1999/xlink">
    <!-- Generator: Sketch 47 (45396) - http://www.bohemiancoding.com/sketch -->
    <title>Group</title>
    <desc>Created with Sketch.</desc>
    <defs></defs>
    <g id="Page-1" stroke="none" stroke-width="1" fill="none" fill-rule="evenodd">
        <g id="homepage" transform="translate(-2184.000000, -81.000000)" fill-rule="nonzero" fill="#CDCDCD">
            <g id="brains" transform="translate(2174.000000, 81.000000)">
                <g id="brain" transform="translate(10.000000, 0.000000)">
                    <g id="Burmuina">
                        <g id="XMLID_1_">
                            <g id="Group">
                                <path d="M20.6156284,8.04035779 C21.1047187,7.54517564 21.7173385,7.16792707 22.4108154,6.95612048 C22.4836118,7.40093474 22.42943,7.86176215 22.2483532,8.28537532 C22.707818,8.48460015 23.0443351,8.89505966 23.1386962,9.38966991 C23.2114925,9.77378126 23.1288072,10.1630805 22.9220937,10.4813827 C22.8347131,10.6153295 22.7246875,10.7366944 22.5954241,10.8397178 C22.8009741,11.796912 22.5709509,12.8010019 21.9578325,13.5812753 L22.0259752,13.6345435 C22.1360008,13.775353 22.2023984,13.940795 22.2222179,14.110853 C22.241996,14.2802983 22.2163593,14.4543188 22.1424411,14.6157575 C22.0253935,14.8355706 21.8204251,14.9901874 21.5851665,15.0491338 C21.4803763,15.076013 21.3691457,15.0834885 21.2567933,15.0691502 C20.9027419,15.0245013 20.6121797,14.7709053 20.5236772,14.4320147 C20.5213088,14.4245392 20.5195637,14.4171045 20.5178186,14.4096699 C20.5079296,14.4165326 20.497999,14.4233954 20.48811,14.4297271 C20.2971442,14.5499483 20.0723563,14.6169421 19.8383026,14.6169421 C19.6310074,14.6169421 19.4306511,14.5642458 19.2548512,14.4680852 L19.254228,14.4680852 C19.1092584,14.3890815 18.9811584,14.2808702 18.8798169,14.1480673 C18.857712,14.1200034 18.8373108,14.0908366 18.8181145,14.061057 C19.0906438,13.8818487 19.281028,13.6002296 19.3409853,13.2767803 L19.5058159,12.1341277 C19.3055012,11.9658263 19.0655889,11.8467489 18.8058571,11.7895182 C19.0946742,11.8055314 19.3805829,11.6973609 19.5838061,11.4855543 C19.8347708,11.2239517 19.9198246,10.8478061 19.8039404,10.506628 C19.7457282,10.3348951 19.6414781,10.1860382 19.5063976,10.0726798 C19.603044,9.63587209 19.7684147,9.22484068 19.9914575,8.8498797 C20.1655124,8.55555637 20.3757161,8.28365962 20.6156284,8.04035779 Z" id="Shape"></path>
                                <path d="M22.2221764,14.1108122 C22.2023568,13.9407542 22.1360008,13.775353 22.0259336,13.6345027 L21.9577909,13.5812344 C22.5709093,12.800961 22.8009326,11.7968712 22.5953825,10.839677 C22.724646,10.7366536 22.8347131,10.6152886 22.9220521,10.4813419 L22.9261241,10.4842014 C23.2457717,10.789881 23.3156595,11.2696627 23.0955668,11.6509146 C23.4979413,12.2170938 23.4059486,12.9893606 22.8818313,13.4490443 C22.9645167,13.7009246 22.930196,13.9762936 22.7875118,14.2012538 C22.6454093,14.425683 22.4090288,14.5773586 22.142358,14.6157166 C22.2163178,14.4542779 22.2419129,14.2802575 22.2221764,14.1108122 Z" id="Shape"></path>
                                <path d="M11.0835818,4.85398606 C11.4038526,4.58151741 11.4510124,4.10978309 11.1901171,3.78118672 C12.6604213,3.38106222 13.8814227,2.37235633 14.5359254,1.01732522 C14.9365548,0.656661695 15.4972781,0.524430659 16.0207306,0.667568611 C16.543643,0.810093815 16.9547431,1.20854347 17.1078565,1.72031067 C18.2706873,1.84167564 19.2501145,2.65630379 19.5551778,3.78118672 C19.8853377,3.72681554 20.2213146,3.84360532 20.4425707,4.09091045 C20.6644501,4.33764367 20.7406952,4.6799656 20.6446306,4.99540832 C21.3264734,5.18777036 21.8918919,5.65717624 22.1981602,6.28634598 C22.3029505,6.50044016 22.3740017,6.72601315 22.4106908,6.95612048 C21.7172138,7.16792707 21.104594,7.54517564 20.6155037,8.04035779 C20.3989012,7.39002782 20.3616305,6.68818617 20.517694,6.00922044 C20.6068197,5.57988829 20.4117403,5.14193681 20.0303488,4.91468897 C19.7869878,4.76926342 19.5004559,4.7303335 19.2355302,4.793324 L19.2285498,4.76411634 C19.1976778,4.50766084 18.9921693,4.30614842 18.731274,4.27636887 C18.4709605,4.24720206 18.223486,4.39773384 18.1349836,4.64046378 C17.8292969,5.47625216 17.165487,6.14206423 16.6204698,6.85076866 C16.3712502,7.17536174 16.3549208,7.6196041 16.5808722,7.96078224 C16.8068235,8.30200122 17.226026,8.4680151 17.6290238,8.37524504 L17.7186481,8.38039212 C17.6935932,8.8515137 17.8281335,9.33182649 18.1280446,9.73713893 C18.0500129,9.77263746 17.9795433,9.81785827 17.9177994,9.87280135 L17.9172177,9.87222945 C17.3378382,9.06336113 16.3514306,8.63513192 15.3528072,8.75821259 C14.9673437,8.48856258 14.4945411,8.40441185 14.0548958,8.50175709 L14.0548958,8.50232899 C14.0077361,8.51205126 13.961158,8.52463302 13.9151617,8.53954322 C13.7271044,8.59848959 13.5483543,8.69240345 13.3881774,8.82063119 C12.3034198,8.65404542 11.2040365,8.82349069 10.2362851,9.28946518 C9.41944484,7.76842019 9.81188881,5.93368903 11.0835818,4.85398606 Z" id="Shape"></path>
                                <path d="M21.6282128,15.2420268 C21.6596664,15.4653122 21.6282128,15.6885568 21.5426188,15.8894973 C20.2359819,15.2317327 18.2666569,15.130425 16.8307566,15.741825 C16.8936639,15.6307542 16.96002,15.521971 17.0269993,15.4109002 C18.3901033,14.7410849 20.3425173,14.7462728 21.6282128,15.2420268 Z" id="Shape"></path>
                                <path d="M21.5851249,15.0490929 C21.6049445,15.1131864 21.6194872,15.1773207 21.6282128,15.2420268 C20.3425588,14.7462728 18.3901033,14.7410849 17.0269993,15.4109002 C17.0916518,15.3032608 17.1568445,15.1933746 17.2203336,15.0771568 C17.8090203,14.7491323 18.5263888,14.552767 19.254228,14.4680443 L19.2548512,14.4680443 C19.4306511,14.5642049 19.6310074,14.6169013 19.8383026,14.6169013 C20.0723563,14.6169013 20.2971442,14.5499075 20.48811,14.4296863 C20.4997442,14.4302582 20.5120015,14.4308301 20.5236357,14.4319739 C20.6121381,14.7708644 20.9027004,15.0244604 21.2567518,15.0691093 C21.3690626,15.0834476 21.4802932,15.0759721 21.5851249,15.0490929 Z" id="Shape"></path>
                                <path d="M21.5426188,15.8894565 C21.4599334,16.0835342 21.3271382,16.2569828 21.1530418,16.3897857 C19.8440781,15.7074294 18.0657605,15.5654353 16.6682943,16.0566141 C16.7177393,15.947259 16.7725028,15.8436638 16.830715,15.7417842 C18.2666569,15.1303841 20.2359819,15.2317327 21.5426188,15.8894565 Z" id="Shape"></path>
                                <path d="M21.1530418,16.3897857 C21.0907577,16.4372941 21.0231967,16.4796554 20.9510236,16.5157259 C20.8933515,16.5443616 20.8351394,16.5724255 20.7763455,16.5982018 C20.6762089,16.6445664 20.5748674,16.6869277 20.472404,16.7258576 C20.4188454,16.7006532 20.3646637,16.6760208 20.3099417,16.6525729 C20.187077,16.5999174 20.0624673,16.5517963 19.9355306,16.5077193 C18.8414243,16.1270393 17.6220848,16.0709525 16.5518284,16.3588624 C16.5856089,16.2524076 16.6252481,16.1522028 16.6683359,16.0566141 C18.0658021,15.5654761 19.8440781,15.7074294 21.1530418,16.3897857 Z" id="Shape"></path>
                                <path d="M13.2526398,18.2176949 C13.1018117,18.019042 12.9667312,17.8055197 12.850847,17.5788029 C12.9294604,17.6028635 13.009819,17.6200205 13.0924628,17.6297427 C13.1105373,17.6623818 13.1297336,17.6944489 13.1501348,17.7264752 C14.3705961,19.6797119 18.1408837,19.8629235 20.0187977,17.8083384 C20.1498063,17.6646285 20.2720893,17.5100934 20.3832783,17.3440796 C20.4916003,17.182069 20.5905734,17.0097642 20.6767491,16.8259806 L20.6773308,16.8259806 C20.7122747,16.7521241 20.7454735,16.6759799 20.7763455,16.5981609 C20.8351394,16.5723846 20.8933515,16.5443616 20.9510236,16.515685 C20.5830528,18.290326 19.1115437,19.6413947 17.2855262,19.8812651 C16.4179113,19.9945827 15.5613904,19.8463385 14.8119865,19.4851031 C14.2046436,19.1931899 13.6678119,18.7615293 13.2526398,18.2176949 Z" id="Shape"></path>
                                <path d="M20.7763455,16.5982018 C20.7454735,16.6760208 20.7122747,16.7522058 20.6773308,16.8260215 L20.6767491,16.8260215 C20.5905734,17.0098051 20.4916003,17.1821098 20.3832783,17.3441204 C20.2720477,17.5101343 20.1498063,17.6647102 20.0187977,17.8083792 C18.1409253,19.8629644 14.3705961,19.6797936 13.1501348,17.7265161 C13.1297751,17.6944898 13.1105373,17.6624226 13.0924628,17.6297836 C13.1058836,17.6314993 13.1198446,17.633215 13.1338055,17.6343588 C13.2706727,17.6457967 13.4109886,17.6377901 13.5501826,17.6074387 C13.5583264,17.6051511 13.5665119,17.6034354 13.5746142,17.6011478 C14.7071963,19.2458862 17.9959142,19.3694979 19.6647464,17.6091544 C19.7963366,17.4700606 19.9180794,17.3194879 20.0274818,17.1569463 C20.1014416,17.0475912 20.170166,16.9325171 20.2324917,16.811724 L20.2330734,16.811724 C20.313432,16.7848448 20.3932088,16.7562091 20.472404,16.7258576 C20.5748674,16.6869277 20.6762089,16.6445664 20.7763455,16.5982018 Z" id="Shape"></path>
                                <path d="M19.991416,8.84983885 C19.7683732,9.22479983 19.6030024,9.63583124 19.5063561,10.0726389 C19.3730207,9.96042433 19.2088133,9.88370827 19.0300217,9.85335681 C18.7767302,9.64784111 18.4267508,9.6026203 18.1280862,9.73713893 C17.8281751,9.33182649 17.6936763,8.8515137 17.7186896,8.38039212 C17.7460714,7.88177858 17.9522031,7.39288731 18.3295227,7.01335115 L18.3516276,7.00991976 C18.2241508,6.31322519 18.3859898,5.58446347 18.8180729,4.99598021 C18.9426827,4.89638823 19.0859071,4.82882254 19.2355718,4.793324 C19.5004975,4.7303335 19.7869878,4.76930427 20.0303903,4.91468897 C20.4118234,5.14193681 20.6068612,5.57988829 20.5177355,6.00922044 C20.361672,6.68818617 20.3989843,7.39002782 20.6155453,8.04035779 C20.3757161,8.28365962 20.1655124,8.55555637 19.991416,8.84983885 Z" id="Shape"></path>
                                <path d="M20.3099002,16.6525729 C20.3646221,16.6760208 20.4188039,16.7006532 20.4723624,16.7258576 C20.3931673,16.7561682 20.3133904,16.784804 20.2330318,16.811724 L20.2324501,16.811724 C20.0501683,16.8724269 19.8656012,16.9250824 19.6780841,16.9697313 C19.6612146,16.9737755 19.6448853,16.9777379 19.6280158,16.9817412 C19.5138767,16.9365612 19.3991559,16.8953437 19.2833133,16.8575167 C19.1552132,16.8157682 19.0264899,16.779085 18.8972265,16.7464459 C18.0931007,16.5444025 17.2615932,16.5151948 16.4755418,16.6600485 C16.4959015,16.5535528 16.5214966,16.4533481 16.5517869,16.3589032 C17.6220433,16.0709525 18.8413827,16.1270393 19.9354891,16.5077601 C20.0624257,16.5517963 20.1870355,16.5999174 20.3099002,16.6525729 Z" id="Shape"></path>
                                <path d="M20.2324917,16.8116832 C20.170166,16.9324763 20.1014831,17.0475503 20.0274818,17.1569055 C19.9180379,17.3194471 19.7963366,17.4700197 19.6647464,17.6091135 C17.9959142,19.3694571 14.7071963,19.2458045 13.5746142,17.601107 C13.5775227,17.6005351 13.5798911,17.600004 13.5827581,17.5993913 C13.7067862,17.5690807 13.831396,17.5415887 13.9572107,17.5169562 C13.9805205,17.512381 14.0043705,17.507765 14.0276387,17.5038026 C15.0838927,18.8044625 17.8387289,18.8639808 19.2926621,17.4310898 C19.4277842,17.2982869 19.5512305,17.1528613 19.6612561,16.9948949 C19.6671147,16.9862755 19.6723501,16.9776971 19.6781256,16.9696905 C19.8656428,16.9250824 20.0502099,16.8724269 20.2324917,16.8116832 Z" id="Shape"></path>
                                <path d="M13.9152448,11.2644748 C14.2739498,11.2014843 14.599456,10.9828149 14.7846048,10.6456401 C15.1258586,10.9003799 15.5515014,11.0509525 16.0126698,11.0509525 C16.2246602,11.0509525 16.4284236,11.0188854 16.6199711,10.9605109 C16.9844932,10.8482963 17.3041824,10.6388182 17.5487483,10.3628773 C17.5807837,10.3989477 17.6075837,10.4395933 17.6291484,10.4842422 C17.6343838,10.2460875 17.7415008,10.0251305 17.917924,9.8728422 C17.9796264,9.81789912 18.0501375,9.77267831 18.1281693,9.73717978 C18.4268339,9.60266115 18.7768133,9.64788196 19.0301048,9.85339766 C19.2088964,9.88374912 19.3731038,9.96046518 19.5064392,10.0726798 C19.6415197,10.1859973 19.7457697,10.3348543 19.8039819,10.506628 C19.9198661,10.8478061 19.8348123,11.2239517 19.5838476,11.4855543 C19.3806244,11.6973609 19.0947573,11.8055314 18.8058986,11.7895182 C18.7436145,11.7751799 18.680167,11.7648857 18.6160962,11.758023 C18.6114425,11.7574511 18.6067889,11.7568792 18.6021352,11.7568792 C18.6696547,11.774608 18.7377974,11.7855149 18.8058986,11.7895182 C19.0656305,11.8467489 19.3055012,11.9658263 19.5058575,12.1341277 L19.3410268,13.2767803 C19.2810695,13.6002296 19.0906854,13.8818487 18.818156,14.061057 C18.7540852,14.1034184 18.6859425,14.1394888 18.6131877,14.1698403 C18.3738571,14.2694322 18.1123801,14.2900614 17.8661106,14.2356494 C17.770046,14.2139173 17.6768483,14.1812782 17.5878057,14.1372012 C17.5418094,14.1148563 17.4975166,14.0896928 17.4544288,14.061057 C17.3880727,14.1463516 17.3077141,14.2184925 17.2174666,14.2740074 C17.1050726,14.3432888 16.978136,14.3879377 16.8442189,14.403379 C16.8267677,14.4056666 16.8087348,14.4068104 16.7912421,14.4079542 C16.698086,14.4131012 16.6060933,14.4039509 16.5175908,14.3822187 C16.4174543,14.3570144 16.3219298,14.3146531 16.2363359,14.2568505 C16.1844809,14.2224957 16.1361577,14.182422 16.0924882,14.1372012 C16.2794237,13.6517413 16.0563809,13.1061913 15.5800881,12.8817621 C15.2283636,12.7163201 14.8248672,12.7661161 14.5296512,12.9842544 C13.7604278,12.1049609 12.5533873,11.7597386 11.4446967,12.0608839 C11.1005759,11.7677861 11.019054,11.2702755 11.2578028,10.8838765 C11.5041139,10.483752 12.0159323,10.3274196 12.4497605,10.5203944 C12.7443947,10.4213334 13.0675326,10.4442502 13.3441339,10.5850597 C13.6206106,10.7252156 13.8273656,10.9708051 13.9152448,11.2644748 Z" id="Shape"></path>
                                <path d="M19.6280573,16.9817004 C19.6391513,16.9857445 19.6501622,16.9903197 19.6612561,16.9948949 C19.5512305,17.1528613 19.4277842,17.2982869 19.2926621,17.4310898 C17.8387289,18.8639808 15.0838927,18.8044625 14.0276387,17.5038026 C14.1406144,17.4826015 14.2535901,17.4637288 14.3677292,17.4465719 C14.4189193,17.4390964 14.4701926,17.4317025 14.5214243,17.4248398 C15.4990647,18.3539293 17.6680812,18.3504979 18.8967279,17.274839 C18.9648706,17.2158927 19.0294816,17.1529022 19.0906438,17.0870522 C19.2717207,17.0573135 19.4510524,17.0229587 19.6280573,16.9817004 Z" id="Shape"></path>
                                <path d="M19.2833548,16.8574759 C19.3991975,16.8953029 19.5139182,16.9365204 19.6280573,16.9817004 C19.4510524,17.0229587 19.2717207,17.0573135 19.0906023,17.0870522 C18.9089022,17.1168317 18.7254985,17.1414234 18.5403497,17.1614398 C18.5152948,17.1540051 18.4902814,17.1471423 18.4646448,17.1402387 L18.4640631,17.1402387 C17.7944361,16.9599274 17.109103,16.9049843 16.4336174,16.9713653 C16.4429662,16.8609073 16.4569272,16.7578022 16.4755833,16.6599668 C17.2616347,16.5151131 18.0931838,16.5443208 18.8972681,16.7463642 C19.026573,16.779085 19.1552548,16.8157273 19.2833548,16.8574759 Z" id="Shape"></path>
                                <path d="M19.2286329,4.76411634 L19.2356134,4.793324 C19.0859486,4.82882254 18.9427242,4.89634738 18.8181145,4.99598021 C18.3860729,5.58446347 18.2241924,6.31322519 18.3516691,7.00991976 L18.3295643,7.01335115 C17.9522447,7.39288731 17.7461129,7.88177858 17.7187312,8.38039212 L17.6291069,8.37524504 C17.2261506,8.4680151 16.8069066,8.30200122 16.5809553,7.96078224 C16.3550039,7.6196041 16.3713333,7.17536174 16.6205529,6.85076866 C17.1655701,6.14206423 17.82938,5.47629301 18.1350667,4.64046378 C18.2235691,4.39773384 18.4710436,4.24720206 18.7313571,4.27636887 C18.9922108,4.30614842 19.1977609,4.50766084 19.2286329,4.76411634 Z" id="Shape"></path>
                                <path d="M19.0906438,17.087093 C19.0294816,17.1529022 18.9648706,17.2158927 18.8967279,17.2748799 C17.6681227,18.3505387 15.4991063,18.3539701 14.5214243,17.4248806 C14.6070597,17.4134427 14.6931938,17.4031076 14.7793694,17.3933854 C14.8882732,17.3813755 14.9977586,17.3704686 15.1072025,17.3613591 L15.1078257,17.3613591 C15.1363709,17.3791288 15.1660379,17.3962449 15.1963282,17.4122989 C16.0610345,17.8754139 17.4736666,17.8090328 18.4134547,17.1752879 L18.4140779,17.1752879 C18.4565425,17.1707127 18.4985084,17.1667094 18.5404328,17.1615215 C18.7254985,17.1414642 18.9089022,17.1168317 19.0906438,17.087093 Z" id="Shape"></path>
                                <path d="M18.8798169,14.1480264 C18.9811169,14.2808294 19.1092169,14.3890407 19.254228,14.4680443 C18.5263472,14.552767 17.8090203,14.7490914 17.2203336,15.0771568 C17.2733104,14.9787086 17.3257055,14.8756443 17.3740287,14.7651454 L17.3746104,14.7651454 C17.8101422,14.4857732 18.3313094,14.2831169 18.8798169,14.1480264 Z" id="Shape"></path>
                                <path d="M18.8181145,14.0610162 C18.8373108,14.0907958 18.857712,14.1199626 18.8798169,14.1480264 C18.3313094,14.2831169 17.8101422,14.4857732 17.3745688,14.7651454 C17.4135847,14.6775633 17.4508554,14.5848341 17.4852177,14.4857732 C17.6045921,14.3959034 17.7321104,14.3123246 17.8660275,14.2356085 C18.1123386,14.2900206 18.3738155,14.2693914 18.6131045,14.1697994 C18.6859009,14.1394479 18.7540437,14.1033775 18.8181145,14.0610162 Z" id="Shape"></path>
                                <path d="M17.9173008,9.87222945 L17.9178825,9.87280135 C17.7414593,10.0250897 17.6343422,10.2460466 17.6291069,10.4842014 C17.6075422,10.4395525 17.5807421,10.3989069 17.5487067,10.3628364 C17.4165348,10.2116919 17.2063311,10.1401229 17.0013627,10.188816 C16.7474895,10.2489061 16.5716064,10.475051 16.5786285,10.7315065 C16.4935747,10.4607536 16.2851576,10.2311773 15.9951771,10.1269693 C15.5188427,9.95523639 14.9889499,10.1796656 14.7886767,10.6382054 C14.7875133,10.640493 14.7857682,10.6433525 14.7845632,10.6456401 C14.294268,10.2804014 13.9775289,9.70164039 13.9775289,9.05016663 C13.9775289,8.86013302 14.0048691,8.67634945 14.0549374,8.50232899 L14.0549374,8.50175709 C14.4945827,8.4044527 14.9673852,8.48860343 15.3528487,8.75821259 C16.3515553,8.63517277 17.3379213,9.06336113 17.9173008,9.87222945 Z" id="Shape"></path>
                                <path d="M16.8307566,15.7417842 C16.7725444,15.8436638 16.7177809,15.947259 16.6683359,16.0566141 C16.6252481,16.1522437 16.5856505,16.2524076 16.5518284,16.3588624 C16.5215381,16.4533073 16.4959431,16.553512 16.4755833,16.6600076 C16.4569272,16.7578839 16.4429662,16.8609481 16.4336174,16.9714062 C16.4254735,17.0698544 16.4219833,17.1746343 16.4231467,17.2856643 L16.4231467,17.286277 C16.2869028,17.2908522 16.1506173,17.2965712 16.0149966,17.302862 C15.9631417,15.7903955 16.8843566,15.4767094 17.2173835,14.2739257 C17.307631,14.2184108 17.3879896,14.1462699 17.4543457,14.0609753 C17.4974335,14.0896111 17.5417263,14.1147746 17.5877226,14.1371195 C17.5574323,14.2619159 17.5230701,14.3775619 17.4852177,14.4857323 C17.4508554,14.5847933 17.4135847,14.6775225 17.3745688,14.7651046 L17.3739871,14.7651046 C17.3256639,14.8756035 17.2732688,14.9786677 17.220292,15.0771159 C17.1568029,15.1933338 17.0915687,15.30322 17.0269578,15.4108594 C16.96002,15.5219302 16.8936639,15.6307134 16.8307566,15.7417842 Z" id="Shape"></path>
                                <path d="M16.4231467,17.2863178 C17.0916103,17.2599697 17.7600739,17.241097 18.4133715,17.175247 C17.4735835,17.808992 16.0609514,17.875373 15.1962451,17.412258 C15.1945,17.3927726 15.1933365,17.3727562 15.1921731,17.3538427 C15.3289987,17.3424047 15.4664476,17.3326416 15.6044367,17.324635 C15.7406806,17.3160566 15.8775062,17.3091938 16.0149551,17.3029029 C16.1506588,17.2965712 16.2869028,17.290893 16.4231467,17.2863178 Z" id="Shape"></path>
                                <path d="M17.0013627,10.188816 C17.2063311,10.1401638 17.4165348,10.2117327 17.5487067,10.3628364 C17.3041408,10.6387773 16.9844932,10.8482963 16.6199296,10.96047 C16.6158577,10.8820383 16.6018967,10.8053222 16.5786285,10.7315065 C16.571648,10.475051 16.7474895,10.248947 17.0013627,10.188816 Z" id="Shape"></path>
                                <path d="M16.8441358,14.4033381 C16.9780945,14.3878969 17.1049895,14.3432071 17.2173835,14.2739666 C16.8843151,15.4767502 15.9631001,15.7904364 16.0149966,17.3029029 C15.8775478,17.3091938 15.7407221,17.3160566 15.6044782,17.324635 C15.5223745,15.7938678 16.4954029,15.4646995 16.8441358,14.4033381 Z" id="Shape"></path>
                                <path d="M16.791159,14.4079133 C16.8086517,14.4067695 16.8266846,14.4056257 16.8441358,14.4033381 C16.4953614,15.4646587 15.522333,15.7938678 15.6044782,17.324635 C15.4664892,17.3326416 15.3290403,17.3424047 15.1922147,17.3538427 C15.0763305,15.7286305 16.1949101,15.4269134 16.5175077,14.3821779 C16.6060102,14.40391 16.6980029,14.4130604 16.791159,14.4079133 Z" id="Shape"></path>
                                <path d="M16.5786285,10.7315474 C16.6019383,10.8054039 16.6158577,10.88212 16.6199296,10.9605109 C16.428382,11.0189262 16.2245771,11.0509525 16.0126283,11.0509525 C15.5514598,11.0509525 15.1258171,10.9003799 14.7845632,10.6456401 C14.7857267,10.6433525 14.7874718,10.640493 14.7886767,10.6382054 C14.9889499,10.1796656 15.5188427,9.95523639 15.9951771,10.1269693 C16.2851576,10.2311773 16.4936162,10.4607536 16.5786285,10.7315474 Z" id="Shape"></path>
                                <path d="M16.2362528,14.2567688 C16.3218467,14.3146122 16.4173296,14.3569735 16.5175077,14.382137 C16.1949101,15.4268725 15.0763305,15.7285897 15.1922147,17.3538018 C15.163628,17.3561303 15.1362878,17.358377 15.1077842,17.3612774 L15.1071609,17.3612774 C14.997717,17.3704277 14.8882316,17.3812938 14.7793279,17.3933037 C14.7700206,17.2856643 14.7659486,17.1843566 14.7665303,17.088196 C14.7793279,15.6088995 15.9473941,15.3243802 16.1971953,14.332341 L16.2362528,14.2567688 Z" id="Shape"></path>
                                <path d="M16.2362528,14.2567688 L16.1972369,14.332341 C15.9474356,15.324421 14.7793694,15.6088995 14.7665719,17.088196 C14.7659486,17.1843566 14.7700621,17.2856643 14.7793694,17.3933037 C14.6931938,17.4030259 14.6070597,17.413361 14.5214243,17.4247989 C14.4701926,17.4316617 14.4189193,17.4390964 14.3677292,17.446531 C14.3595853,17.3749621 14.3543499,17.3057215 14.3513998,17.2387277 C14.2826754,15.6964817 15.4414343,15.3730324 15.7902087,14.5566885 C15.9369649,14.459956 16.0464088,14.3122429 16.0924051,14.1370787 C16.1360746,14.1823812 16.1843978,14.2224549 16.2362528,14.2567688 Z" id="Shape"></path>
                                <path d="M10.6952098,13.5744125 C10.9135989,13.6316432 11.1348551,13.6763329 11.358438,13.7083592 C11.1441624,13.6207771 10.9188343,13.5767001 10.6952098,13.5744125 Z M6.7775843,15.3564882 L6.7350782,15.3616353 C6.1411561,14.878463 5.76965355,14.211548 5.65376936,13.5005559 C5.56119496,12.9378081 5.62933769,12.3470373 5.87448533,11.798015 C6.11963297,11.2484616 6.51556718,10.7985003 6.99946369,10.4842014 C7.38143695,10.2351806 7.81755045,10.0708824 8.27817871,10.0079327 C8.55357507,9.9695747 8.83773858,9.967859 9.12364721,10.006217 C9.46602289,9.71941008 9.83985227,9.47953963 10.2363682,9.28950603 C11.2041196,8.82353154 12.3035029,8.65408627 13.3882605,8.82067204 C13.5483959,8.6924443 13.7271459,8.59853044 13.9152448,8.53958407 C13.9612411,8.52467387 14.0078607,8.51209211 14.0549789,8.50236984 C14.0049106,8.6763903 13.9775705,8.86017387 13.9775705,9.05020748 C13.9775705,9.70168124 14.2943095,10.2804422 14.7846048,10.6456809 C14.599456,10.9828558 14.2739498,11.2015251 13.9152448,11.2645156 C13.8273656,10.9708459 13.6206106,10.7252565 13.3440508,10.5850189 C13.0674495,10.4441685 12.7442701,10.4212926 12.4496774,10.5203535 C12.0158907,10.3274196 11.5040308,10.4837112 11.2577197,10.8838357 C11.0189709,11.2702346 11.1004928,11.7677452 11.4446136,12.0608431 C12.5533042,11.7596978 13.7603447,12.1049201 14.5295681,12.9842136 C14.8247841,12.7661161 15.2282805,12.7162793 15.580005,12.8817212 C16.0562978,13.1061504 16.2793406,13.6517005 16.0924051,14.1371604 C16.0464088,14.3123246 15.9369649,14.4600377 15.7902087,14.5567702 C15.7063599,14.612898 15.6102953,14.6523589 15.5060452,14.6701286 C15.4705611,14.6764195 15.4344122,14.6798509 15.3989282,14.6804228 C15.2953013,14.6838542 15.1927964,14.6649816 15.0990586,14.6271954 C14.9685902,14.5751118 14.8533292,14.485814 14.7694389,14.3667366 C14.7700621,14.53561 14.7077365,14.6935765 14.6006194,14.8149823 C14.517934,14.9088553 14.4084486,14.9809553 14.281512,15.0193542 C14.209879,15.0410863 14.1370826,15.0508494 14.0648679,15.0491338 C14.0136778,15.0485619 13.9629862,15.0416582 13.9140814,15.0302203 L13.9134581,15.0302203 L13.6363166,15.1080801 C13.6363166,15.1080801 13.6356934,15.1080801 13.6356934,15.108652 L12.9853042,15.2918228 L12.1596137,15.5242586 L10.6153914,15.9598817 L10.6148097,15.9598817 C10.4925267,16.1493842 10.3149401,16.3067788 10.0954291,16.4058397 C9.76352409,16.5558404 9.39197999,16.5483649 9.07698605,16.4052678 C8.53836761,16.7453021 7.8367052,16.7126631 7.33186727,16.3188295 C7.01982341,16.0743838 6.82765259,15.7269148 6.7775843,15.3564882 Z" id="Shape"></path>
                                <path d="M15.5060452,14.6701286 C15.6102953,14.6523589 15.7063599,14.612898 15.7902087,14.5567702 C15.4414343,15.3731141 14.2826754,15.6965634 14.3513998,17.2388094 C14.3543084,17.3058032 14.3595437,17.3750438 14.3677292,17.4466127 C14.2535901,17.4637697 14.1406144,17.4826832 14.0276387,17.5038434 C13.9979302,17.467773 13.9694266,17.4305587 13.9432082,17.3922416 C13.7888899,15.7475032 14.9889914,15.3994623 15.3989282,14.6804228 C15.4344122,14.6798509 15.4705611,14.6764195 15.5060452,14.6701286 Z" id="Shape"></path>
                                <path d="M15.0990586,14.6271546 C15.1927964,14.6649407 15.2953013,14.6838133 15.3989282,14.680382 C14.9889914,15.3994214 13.7888899,15.7474623 13.9432082,17.3922007 C13.9466985,17.4328055 13.9513521,17.4746358 13.9572107,17.5169971 C13.8314375,17.5416296 13.7068277,17.5690807 13.5827581,17.5994321 C13.5798911,17.6000449 13.5775227,17.6005759 13.5746142,17.6011478 C13.5635618,17.5851347 13.5525094,17.5691215 13.5420387,17.5525365 C13.2759081,15.6639243 14.7345365,15.3708265 15.0990586,14.6271546 Z" id="Shape"></path>
                                <path d="M15.0402231,21.0405437 L14.9540475,21.0777579 L13.7132265,21.0777579 L13.6899167,21.0244897 L13.6805679,21.0032886 C13.3056166,20.1577779 12.8938932,19.4736651 12.2650688,18.708261 L13.2526398,18.2176541 C13.6678119,18.7614476 14.2046436,19.193149 14.8119865,19.4850622 C14.7642451,20.0976878 14.761295,20.5190133 15.0402231,21.0405437 Z" id="Shape"></path>
                                <path d="M14.6297047,14.8384301 L14.6006194,14.8149823 C14.7077365,14.6935765 14.7700621,14.53561 14.7694389,14.3667366 C14.8533292,14.485814 14.9685902,14.5751118 15.0990586,14.6271954 C14.7345365,15.3708673 13.2759081,15.6639243 13.5419971,17.5525365 C13.5443239,17.5708372 13.5466508,17.589138 13.550141,17.6074795 C13.410947,17.637831 13.2706311,17.6458376 13.133764,17.6343996 C12.8380079,15.8139251 14.1231217,15.4194787 14.6297047,14.8384301 Z" id="Shape"></path>
                                <path d="M12.8502653,17.5788438 C12.7972884,17.5622587 12.745475,17.5427733 12.6947835,17.5198974 C12.4985407,15.9816546 13.479713,15.4979513 14.0649095,15.0491338 C14.1371242,15.0508494 14.2099206,15.0411272 14.2815535,15.0193542 C14.4084901,14.9809962 14.517934,14.9088553 14.600661,14.8149823 L14.6297463,14.8384301 C14.1231632,15.4195195 12.8380494,15.8139251 13.1338471,17.6343588 C13.1198861,17.633215 13.1059252,17.6314993 13.0925044,17.6297836 C13.0098605,17.6200613 12.9294604,17.6029044 12.8508885,17.5788438 L12.8502653,17.5788438 L12.8502653,17.5788438 Z" id="Shape"></path>
                                <path d="M13.9141229,15.0301794 C13.9630278,15.0416174 14.0136778,15.048521 14.0649095,15.0490929 C13.479713,15.4979104 12.4985823,15.9816138 12.6947835,17.5198566 C12.5277091,17.446 12.3756761,17.3377887 12.2499444,17.2009825 C12.2243078,15.9455433 13.0715214,15.4858597 13.6357765,15.1085703 C13.6357765,15.1079984 13.6363997,15.1079984 13.6363997,15.1079984 L13.9135412,15.0301386 L13.9141229,15.0301386 L13.9141229,15.0301794 Z" id="Shape"></path>
                                <path d="M12.9853458,15.291782 L13.6357349,15.1086112 C13.0715214,15.4858597 12.2242662,15.9455433 12.2499029,17.2010233 C12.2033248,17.1500427 12.160237,17.0950996 12.1211796,17.0367251 C12.0146442,16.877574 11.9470832,16.7018379 11.9179563,16.5215265 C12.1078419,15.896932 12.569592,15.5494221 12.9853458,15.291782 Z" id="Shape"></path>
                                <path d="M8.9832898,4.07542835 C8.79232394,3.63804876 8.95245936,3.12799726 9.36123266,2.87268556 C9.22203866,2.30707823 9.48933269,1.72031067 10.0110817,1.44551358 C10.5333708,1.17071649 11.1779844,1.277784 11.579154,1.70597236 C11.5337393,1.29894423 11.6589308,0.907929258 11.9017517,0.606824851 C12.1090468,0.349797455 12.4019359,0.158007305 12.7483836,0.0772879581 C13.5001558,-0.0973043955 14.2670109,0.305679593 14.5360085,1.01728437 C13.8815058,2.37231548 12.6604628,3.38102137 11.1902003,3.78114587 C11.451054,4.10974224 11.4039358,4.58147656 11.0836649,4.85394521 C9.81197191,5.93364818 9.41948639,7.76837934 10.2364097,9.28942433 C9.83989382,9.47949878 9.46606444,9.71932838 9.12368876,10.0061353 C8.83778013,9.9677773 8.55361662,9.96953385 8.27822026,10.007851 C8.79066192,8.74783672 8.53267519,7.50387642 8.42086294,6.41159168 C8.35097509,5.7194723 8.33934096,5.08858687 8.62117765,4.553331 C8.70963855,4.38400828 8.82838973,4.22428528 8.9832898,4.07542835 Z" id="Shape"></path>
                                <path d="M13.2526398,18.2176949 L12.2650688,18.7083019 C11.6256905,18.8359577 10.9654123,18.6270107 10.5222768,18.1564201 C10.0791828,17.6864423 9.91726075,17.0229587 10.0955122,16.4058397 C10.3150232,16.3067788 10.4926098,16.1493842 10.6148928,15.9598817 L10.6154745,15.9598817 L12.1596968,15.5242586 C11.9430944,15.8167845 11.8610322,16.1774072 11.918081,16.5214857 C11.9471663,16.701797 12.0147273,16.877574 12.1213042,17.0366843 C12.1603201,17.0950996 12.2034495,17.1500018 12.2500275,17.2009825 C12.3757592,17.3377887 12.5277922,17.446 12.6948666,17.5198566 C12.7455581,17.5427733 12.7973715,17.5622179 12.8503484,17.5788029 L12.8509301,17.5788029 C12.9667312,17.8055197 13.1018117,18.019042 13.2526398,18.2176949 Z" id="Shape"></path>
                                <path d="M12.1596553,15.5242586 L12.9853458,15.2918228 C12.569592,15.549463 12.1078419,15.896932 11.9179979,16.5215265 C11.8609491,16.1774072 11.9430528,15.8167845 12.1596553,15.5242586 Z" id="Shape"></path>
                                <path d="M1.42289507,4.88433751 C1.47005482,4.65937727 1.53761585,4.4424236 1.62437318,4.2340484 C1.80137809,3.80982248 2.2945819,3.6598626 2.6107808,3.33126622 C2.92756141,3.00324175 3.06729557,2.49719353 3.48944811,2.3008282 C3.91101895,2.10503476 4.37625931,1.98366979 4.86888141,1.95560593 C5.14020583,1.44784202 5.58624988,1.04596098 6.13301222,0.825535066 C6.78514648,0.563360587 7.51942599,0.584520821 8.15527248,0.883378485 C8.75617505,0.395059114 9.57197653,0.315483563 10.241562,0.625779192 C10.6992817,0.176961646 11.4364282,0.170670766 11.9016686,0.606906551 C11.6588477,0.908010958 11.5336978,1.29902593 11.5790709,1.70605406 C11.1779013,1.2778657 10.5332877,1.17079819 10.0109986,1.44559528 C9.48924959,1.72039237 9.22199711,2.30715993 9.36114956,2.87276726 C8.95237626,3.12807896 8.79228239,3.63813046 8.98320669,4.07551005 C8.82830663,4.22436698 8.70955545,4.38408998 8.621053,4.55353525 C8.33921631,5.08879112 8.35085044,5.71967655 8.42073829,6.41179593 L8.36950659,6.41694302 C7.84019544,6.06028278 7.1856928,5.93205503 6.55799019,6.06085468 C5.98791805,6.17764447 5.48424353,6.49766236 5.14186785,6.95620218 C5.0353325,7.41931718 5.14826662,7.90534896 5.44817774,8.27802234 C5.74862903,8.65069573 6.20398038,8.86997784 6.68729518,8.87398113 C6.65293296,8.89689791 6.61682562,8.91805814 6.58013658,8.93807458 C6.75016101,9.06001145 6.83168299,9.26838664 6.78743176,9.47047096 C6.74318053,9.67312718 6.58129999,9.83052173 6.37516822,9.87231115 C6.71638049,9.87860203 6.99181841,10.1488239 6.99938059,10.4842831 C6.51548408,10.798582 6.11954987,11.2485433 5.87440223,11.7980967 C5.62925459,12.3470781 5.56111186,12.9378898 5.65368626,13.5006376 L5.61408868,13.5063566 L5.00383726,13.3918544 C4.55546638,13.6437347 4.02150159,13.7026811 3.52775762,13.553865 C3.03397211,13.40558 2.62465865,13.0626862 2.3969622,12.6075777 C2.0295316,12.5440153 1.68715591,12.4003463 1.39193998,12.1913992 C1.09614235,11.9824521 1.17417409,11.6097788 0.99596422,11.2880452 C0.818377609,10.9657397 0.39389824,10.7115718 0.376405502,10.3543396 C0.367679908,10.1808911 0.378732327,10.0068706 0.408440896,9.83513777 C-0.0789042993,9.0760246 -0.0742506492,8.12401832 0.38280427,7.37867156 C0.0766605752,6.40995769 0.513355776,5.36350651 1.42289507,4.88433751 Z" id="Shape"></path>
                                <path d="M6.68733673,8.87385858 C6.20402193,8.86985529 5.74867058,8.65057318 5.44821929,8.27789979 C5.14834972,7.90522641 5.03537405,7.41919463 5.1419094,6.95607963 C5.48428508,6.49753981 5.9879596,6.17752192 6.55803174,6.06073213 C7.18573435,5.93193249 7.84023699,6.06016023 8.36954814,6.41682047 L8.42077984,6.41167338 C8.53259209,7.50391727 8.79053727,8.74791842 8.27813715,10.0079327 C7.81755045,10.0709232 7.3813954,10.2351806 6.99942214,10.4842014 C6.99185996,10.1487422 6.71642204,9.87852033 6.37520977,9.87222945 C6.58134154,9.83044003 6.74322208,9.67304548 6.78747331,9.47038926 C6.83172454,9.26830494 6.75020256,9.05992975 6.58017813,8.93799288 C6.61690872,8.91797644 6.65297451,8.89677536 6.68733673,8.87385858 Z" id="Shape"></path>
                            </g>
                        </g>
                    </g>
                </g>
            </g>
        </g>
    </g>
</svg>