<?xml version="1.0" encoding="UTF-8"?>
<svg width="25px" height="21px" viewBox="0 0 25 21" version="1.1" xmlns="http://www.w3.org/2000/svg" xmlns:xlink="http://www.w3.org/1999/xlink">
    <!-- Generator: Sketch 47 (45396) - http://www.bohemiancoding.com/sketch -->
    <title>Group</title>
    <desc>Created with Sketch.</desc>
    <defs></defs>
    <g id="Page-1" stroke="none" stroke-width="1" fill="none" fill-rule="evenodd" stroke-linejoin="round">
        <g id="homepage" transform="translate(-2195.000000, -80.000000)" stroke-width="0.5" stroke="#4D4D4D">
            <g id="brains" transform="translate(2174.000000, 81.000000)">
                <g id="brain" transform="translate(10.000000, 0.000000)">
                    <g id="Burmuina">
                        <g id="XMLID_1_">
                            <g id="Group" transform="translate(12.041550, 0.000000)">
                                <path d="M4.68988208,2.26071362 C4.72889795,2.1553618 4.7748943,2.05348222 4.82733096,1.95556508 C5.09865538,1.44780117 5.54469943,1.04592013 6.09146177,0.825494216 C6.74359604,0.563319737 7.47787554,0.584479971 8.11372204,0.883337635 C8.7146246,0.395018264 9.53042608,0.315442713 10.2000115,0.625738342 C10.4032763,0.720755144 10.5930788,0.851270486 10.759613,1.01728437" id="Shape"></path>
                                <path d="M4.82787112,1.95560593 L4.82728941,1.95560593 C4.33466731,1.98366979 3.86942695,2.10503476 3.44785611,2.3008282 C3.02570357,2.49715268 2.88596941,3.0032009 2.5691888,3.33122537 C2.2529899,3.65982175 1.75982764,3.80978163 1.58278119,4.23400755 C1.49602385,4.44238275 1.42846283,4.65933642 1.38130307,4.88429666 C1.33239819,5.11844813 1.30617986,5.36003427 1.30501645,5.6073394" id="Shape"></path>
                                <path d="M0.682590747,6.94635736 C0.549837068,7.07916029 0.43569799,7.22458584 0.341378475,7.37858986 C-0.115676445,8.12393662 -0.120371646,9.0759429 0.367015101,9.83505607 C0.374577282,9.84763783 0.38272117,9.86026044 0.390906608,9.8722703" id="Shape"></path>
                                <path d="M0.341378475,7.37973365 C0.341378475,7.37916176 0.341378475,7.37916176 0.341378475,7.37858986 C0.0351101279,6.40995769 0.471805328,5.36350651 1.38134462,4.88433751" id="Shape"></path>
                                <path d="M8.94232105,4.07718489 C8.75073194,3.63808961 8.91086737,3.12803811 9.31964067,2.87272641 C9.18044667,2.30711908 9.44774069,1.72035152 9.96948966,1.44555443 C10.4917788,1.17075734 11.1363924,1.27782485 11.537562,1.70601321 C11.4921474,1.29898508 11.6173388,0.907970108 11.8601597,0.606865701 C12.0674548,0.349838305 12.3603439,0.158048155 12.7067916,0.077328808 C13.4585638,-0.0972635456 14.2254189,0.305720443 14.4944165,1.01732522 C13.8399138,2.37235633 12.6188708,3.38106222 11.1486083,3.78118672" id="Shape"></path>
                                <path d="M5.57262133,13.5062749 L4.96236991,13.3917727 C4.51399904,13.6436531 3.98003424,13.7025994 3.48629028,13.5537833 C2.99250476,13.4054983 2.58319131,13.0626045 2.35549485,12.607496 C1.98806425,12.5439336 1.64568856,12.4002646 1.35047264,12.1913175 C1.054675,11.9823704 1.13270674,11.6096971 0.954496874,11.2879635 C0.776910263,10.965658 0.352430894,10.7114901 0.334938155,10.3542579 C0.326212561,10.1808094 0.33726498,10.0067889 0.36697355,9.83505607 C0.398427239,9.65241629 0.451985765,9.47267685 0.527108974,9.2986564" id="Shape"></path>
                                <path d="M5.46719422,13.4446339 L6.82981322,14.6157166 C6.73200346,14.8567309 6.7028766,15.1114707 6.73607541,15.3564882 C6.7861437,15.726874 6.97831451,16.074343 7.29039992,16.3188295 C7.6110476,16.5689987 8.01109726,16.6734237 8.39834016,16.6291945 C8.62078483,16.6037878 8.83900362,16.5293294 9.03551871,16.4052678 C9.05122478,16.3955455 9.0669724,16.3852105 9.08209676,16.3749164" id="Shape"></path>
                                <path d="M8.58070751,16.0497514 C8.70419544,16.2071868 8.86138078,16.3268361 9.03547716,16.4052678 C9.3504711,16.5483649 9.72197365,16.5558404 10.0539202,16.4058397 C10.2734312,16.3067788 10.4510178,16.1493842 10.5733008,15.9598817" id="Shape"></path>
                                <path d="M22.8845736,10.4842014 C23.2042212,10.789881 23.2741091,11.2696627 23.0540164,11.6509146 C23.4563909,12.2170938 23.3643982,12.9893606 22.8402809,13.4490443 C22.9229662,13.7009246 22.8886456,13.9762936 22.7459613,14.2012538 C22.6038588,14.425683 22.3674783,14.5773586 22.1008075,14.6157166 C21.9837599,14.8355298 21.7787916,14.9901465 21.5435329,15.0490929 C21.4387427,15.0759721 21.3275122,15.0834476 21.2151598,15.0691093 C20.8611084,15.0244604 20.5705461,14.7708644 20.4820437,14.4319739 C20.4796753,14.4244984 20.4779302,14.4170637 20.4761851,14.409629 L20.4761851,14.4090571" id="Shape"></path>
                                <path d="M22.4926698,10.8860824 C22.5136528,10.8712131 22.5340125,10.855731 22.5538321,10.8397178 C22.6830955,10.7366944 22.7931626,10.6153295 22.8805017,10.4813827 C23.0872152,10.1630805 23.1699005,9.77382211 23.0971042,9.38966991 C23.0027431,8.89505966 22.666226,8.48460015 22.2067612,8.28537532 C22.1357515,8.25449282 22.06121,8.22871655 21.9843416,8.20870011" id="Shape"></path>
                                <path d="M16.8486233,1.70601321 C16.9220013,1.7083008 16.9947977,1.71287599 17.0663892,1.72031067 C18.22922,1.84167564 19.2086471,2.65630379 19.5137105,3.78118672 C19.8438703,3.72681554 20.1798473,3.84360532 20.4011034,4.09091045 C20.6229828,4.33764367 20.6992279,4.6799656 20.6031632,4.99540832 C21.2850061,5.18777036 21.8504245,5.65717624 22.1566929,6.28634598 C22.2614831,6.50044016 22.3325344,6.72601315 22.3692234,6.95612048 C22.4420198,7.40093474 22.387838,7.86176215 22.2067612,8.28537532" id="Shape"></path>
                                <path d="M17.0663892,1.72031067 C16.9132342,1.20854347 16.5021756,0.810093815 15.9792632,0.667568611 C15.4557692,0.524471509 14.8950459,0.656702545 14.494458,1.01732522" id="Shape"></path>
                                <polyline id="Shape" points="10.5733008 15.9598817 10.5738825 15.9598817 12.1181048 15.5242586 12.9437953 15.291782 13.5941845 15.1086112"></polyline>
                                <path d="M12.8087148,17.5788438 C12.755738,17.5622587 12.7039246,17.5427733 12.653233,17.5198974 C12.4861587,17.4460408 12.3341256,17.3378295 12.208394,17.2010233 C12.1618159,17.1500427 12.1187281,17.0950996 12.0796707,17.0367251 C11.9731353,16.877574 11.9055743,16.7018379 11.8764474,16.5215265 C11.8193987,16.1774481 11.9015024,15.8168254 12.1180633,15.5242995" id="Shape"></path>
                                <path d="M21.5435745,15.0490929 C21.5633941,15.1131864 21.5779367,15.1773207 21.5866623,15.2420268 C21.618116,15.4653122 21.5866623,15.6885568 21.5010684,15.8894973 C21.418383,16.0835751 21.2855878,16.2570236 21.1114914,16.3898266 C21.0492073,16.437335 20.9816462,16.4796963 20.9094731,16.5157667 C20.8518011,16.5444025 20.7935889,16.5724663 20.734795,16.5982426 C20.6346585,16.6446072 20.5333169,16.6869685 20.4308535,16.7258985 C20.3516584,16.7562091 20.2718815,16.7848448 20.1915229,16.8117649" id="Shape"></path>
                                <path d="M12.8087148,17.578231 L12.8087148,17.5788438 L12.8092965,17.5788438 C12.9251807,17.8055606 13.0602612,18.019042 13.2110894,18.2177358 C13.6262614,18.7615293 14.1184591,18.6108322 14.725802,18.9027454 C15.4752059,19.2639808 16.581984,19.3054964 17.4495989,19.192138 C19.2756164,18.9522676 20.5414608,18.2904077 20.9094731,16.5157259" id="Shape"></path>
                            </g>
                        </g>
                    </g>
                </g>
            </g>
        </g>
    </g>
</svg>