<svg xmlns="http://www.w3.org/2000/svg" viewBox="0 0 273.67 380.94"><defs><style>.cls-1{fill:#202020;}</style></defs><title>logo</title><g id="Layer_2" data-name="Layer 2"><g id="Layer_1-2" data-name="Layer 1"><path class="cls-1" d="M17.88,21.07l1.18.58a15.6,15.6,0,0,1-3.34-.78c6.35,2.52,13.42,5.25,20.08,8.23s13,6.09,18,8.62c3.07,2.5,6.16,4.28,7,3.93.41-.19.23-.95-.5-1.94a22.79,22.79,0,0,0-3.53-3.61c-.63-.65-1.47-1.32-1.91-1.83a64.5,64.5,0,0,0-17-13.66c1.35.94,2.75,1.9,4.07,2.85a57.45,57.45,0,0,0-6.56-3.66c.2.25.48.54.67.8a58.54,58.54,0,0,0-6-3.11,62.17,62.17,0,0,0-6.83-2.29A51.49,51.49,0,0,0,16.41,14a34.14,34.14,0,0,0-5.5,0c-3.07.39-4.11,1.3-3.39,2.27a6.14,6.14,0,0,0,2.34,1.56,34.58,34.58,0,0,0,4.66,1.91C15.68,20.11,16.78,20.6,17.88,21.07Z" transform="translate(0 -2.3)"/><path class="cls-1" d="M29.87,30.37c-2-1.1-3.84-2.27-5.85-3.2l-3-1.48c-1-.47-2-.87-3.07-1.31l-.78-.5,0,1.34.1-.06C21.56,25,28.18,26.88,34,29.27l2.08.81a3.94,3.94,0,0,0,2.12.27c.77-.32-.71-1.73-3.34-3.13l-1.52-.8-1.57-.72a47.76,47.76,0,0,0-6.42-2.92c-1.19-.44-2.4-.88-3.63-1.26s-2.51-.65-3.74-.93C13,19.51,8.29,19.41,5.81,20.3c-1.11.4-.25,1.14-.09,1.76-.4.87,2.62,1.79,6.56,2.68,1,.21,2,.33,2.86.49a23.3,23.3,0,0,0,2.42.32c1.43.1,2.46,0,2.72-.4.66.22,1.3.54,1.94.81l-1.64-.22a8.73,8.73,0,0,1,3.29.26c1.41.28,3,.66,4.36,1l3.93,1.41q-.67-1.38-1.39-2.78l-2.15-.6c.12.14.38.39.35.38-4.11-1-8.05-1.73-12.6-2.48-1-.14-1.93-.2-2.91-.25l-2.91-.17c-1.6.1-1.52.7.07,1.35l2.39.89L12,24.33c2.83.68,5.6,1.7,8.38,2.62a75.64,75.64,0,0,1,7.85,3.5,6,6,0,0,0,2.3.75C30.93,31.17,30.68,30.81,29.87,30.37Z" transform="translate(0 -2.3)"/><path class="cls-1" d="M10.6,24.86a10.1,10.1,0,0,0-3.08-.76l-.59.1,1.76.55C9.94,25.22,10.62,25.16,10.6,24.86Z" transform="translate(0 -2.3)"/><path class="cls-1" d="M6.93,24.19,6.19,24l.48.25h.15Z" transform="translate(0 -2.3)"/><path class="cls-1" d="M113.7,207.91c.56,15.41.67,30.88.26,46.32,0,.52.06,1,.19,1s.23-.37.24-.85q.65-23.19-.22-46.29a1.6,1.6,0,0,0-.27-1C113.77,207.06,113.68,207.43,113.7,207.91Z" transform="translate(0 -2.3)"/><path class="cls-1" d="M97.54,321.54c-.05-.37-.18-.37-.32,0a3,3,0,0,0-.15,1.24c0,.31.2.32.32,0A3,3,0,0,0,97.54,321.54Z" transform="translate(0 -2.3)"/><path class="cls-1" d="M88.17,317.1a48.92,48.92,0,0,0,0-5.86,3.16,3.16,0,0,1,.11-1c-.22.1-.36-.32-.36-1.07,0-14.84.43-30.66,0-46.23a1.43,1.43,0,0,1-.46-.67,13.58,13.58,0,0,1-.56-5.48l.16-1.68c.25-3.4.32-6.81.47-10.21l.2-5.1.12-5.09a34.94,34.94,0,0,1-.53-4.74L84.8,212.36c-.11.38-.27.62-.45.63-.44-.09-.86-1.45-.94-3.07l-.18-2.44.1,7a8.2,8.2,0,0,1,0,.93l.38,7.78c.4,5.74.59,11.4,1,17,.21,5.6.62,11.14.79,16.63.55,11,.82,21.84,1,32.68a2.89,2.89,0,0,1-.15,1.22c-.12.2-.26.15-.29-.25-1.18-13.74-3.49-25.55-4.79-40.76-1.63-18.11-3.8-35.83-6.54-54.07-.41-4.79-1-9.48-1.62-14.12s-1.39-9.22-2.25-13.79-1.72-9.17-2.71-13.74-2.06-9.11-3.22-13.67A202.32,202.32,0,0,0,53.5,106.64a114,114,0,0,0-7.73-14.28,82.45,82.45,0,0,0-9.44-12.07c-.69-.66-1.37-1.31-2-2l-.92-1q-.47-.47-.91-1c-.59-.64-1.12-1.3-1.63-1.92s-1-1.19-1.42-1.78a20.59,20.59,0,0,1-2-3.2,4.18,4.18,0,0,1-.43-2.5c.4-1.63,2.67-1.83,6-.57-.52-.45-1.07-.81-1.59-1.23-.81-.69-1.57-1.47-2.41-2.11-1.18-.92-2.19-2-3.1-2.8a13.9,13.9,0,0,1-2.13-2.51c-.49-.68-1-1.3-1.52-2a18.68,18.68,0,0,0-1.69-2.46c-.67-.8-1.41-1.61-2.14-2.44S17,49.27,16.3,48.5a18,18,0,0,1-1.79-2.24l.81-.58-.54-.43c-1.87-1.1-3.08-2.22-3.38-3.15l.43-.9c.71-1,2-1.71,4.12-2.19.05-.42.38-.75,1-1-1.27-1.37-1.79-2.6-.19-3.37-.9-.54-.64-.91.62-.83a5.91,5.91,0,0,1,1.43.26h0a8.61,8.61,0,0,0-1.26-1L16,32.5l-2.58-.85c-.62-.18-1.2-.32-2.36-.63a24.83,24.83,0,0,1-2.32-1l-.85-.43c-2.07-2-2.12-2-1.65-2.71l.49-.16-2.53-.63a7.26,7.26,0,0,1-.89-.39c-.05-.41-.05-.41-.37-.6a.46.46,0,0,1-.06-.31C4,24.48,4,24.48,4,24.35a4.75,4.75,0,0,1,.64-.15h2c1.32.68,2,1,2.28,1.21l.32.19.65-.25.55.59-.28-.5,1.32.52L10,25.3c3.21.76,3.21.76,4.5,1a24,24,0,0,0,2.6.61.47.47,0,0,1-.06-.26c1.67.54,2.52.78,3.33,1.08L23.56,29c.27.19.47.37.65.53a4.08,4.08,0,0,1,1.6.41l1.6.75.37.09a.12.12,0,0,0,0,0l1.46.38.31.07h0c1,.24,2.43.7,6.23,2,.93.5,1.71,1.09,2.47,1.6l-.65-.6c-.41-.4.21-.49,0-.67A74.63,74.63,0,0,0,15.79,23.39c-1.46-.32-2.82-.75-3-1.12s1-.44,2.53-.18A66.5,66.5,0,0,1,41.42,30.8,78.52,78.52,0,0,1,62.14,48.09c1.46,1.64,3,3.22,4.38,4.9s2.84,3.33,4.12,5.11l-.24-.61,1.91,2.82.22.29-1.07-2.44-1-1.52c-3.22-4-6.31-7.77-9.68-11.36-.84-.9-1.67-1.81-2.52-2.69L55.62,40l-1.35-1.3c-.46-.42-.94-.83-1.42-1.25L49.94,35a125.18,125.18,0,0,0-12.78-9.36c-1.23-.65-2-1.3-1.73-1.5s1.53.22,2.75.86A87,87,0,0,1,61,40.47a74.88,74.88,0,0,1,14.81,19.1,37.45,37.45,0,0,1,4.43,7.34l.07.12-.56-1.92c1.15,2,1.47,3.31,2.38,5.18l.29-1.08c2.75,4.9,5.48,10,7.79,15.13a91.6,91.6,0,0,1,5.31,15.14c.13.38.24.74.33,1.1a73.2,73.2,0,0,1,5.29,12.54c-.38-1.65-.77-3.26-1.21-4.92.74,1.69,1.37,3.39,2,5.14s1.14,3.54,1.62,5.41c2.63,10.18,3.48,21.66,2.29,27.22,3.46,19,6,38.13,7.93,57.32a3.37,3.37,0,0,1-.24,2.09c-.23.12-.5-.52-.6-1.51-1.83-13.69-3.74-27.53-6.07-41.32,1.19,11.63,2.2,23.32,3,35.25l.49,4.57c.14,1.51.16,3,.16,4.52,1,15.24,1.29,29.72,1.75,45.31.33,13.32.39,25,.2,38.32-.37,18.7-1.37,35.81-4.41,54.1-.34,2.44-1.16,4.62-1.81,4.79s-.91-1.67-.57-4.11c4.55-38.31,4.93-76,4.18-115.92-.07-4.31-.27-8.55-.39-12.77a.49.49,0,0,1-.24.12c-.33,0-.66-.37-.95-1,.1,4.78.24,9.6.16,14.44a274,274,0,0,1,.71,41.26c-.3,4.92-.85,9.59-1.44,14.16s-1.34,9-2,13.53c-.68,11.5-1.49,23-2.95,34.57a2.11,2.11,0,0,1-.3,1.08c-.14.15-.22-.12-.2-.59.21-4,.5-8.07.68-12.16s.49-8.2.63-12.34c-.52,1.25-1.09,2-1.62,1.8s-.94-1.22-1.14-2.79l-.64,5.55c-.16,1.14-.5,2-.77,1.95s-.4-1-.25-2.08l1.26-11.31c.4-3.77.7-7.54,1-11.32.23-4.54.3-9.09.47-13.62l.22-13.63a5.66,5.66,0,0,1-1.45,2.58h0l-.13,4.2A379.28,379.28,0,0,1,94.1,349.2c-.08.51-.26.92-.39.9s-.17-.43-.08-.89c.71-3.94,1.42-7.88,2.06-11.83s1.14-7.9,1.66-11.85v0c-.12.31-.27.35-.32,0a3.31,3.31,0,0,1,.15-1.24c.14-.35.27-.3.32,0a374.85,374.85,0,0,0,2.69-44,398.45,398.45,0,0,1-3.81,40.22L96.3,325a2.1,2.1,0,0,1-.31,1.07c-.12.1-.21-.21-.18-.63l0-1.24c-.37,2.52-1.23,4.38-1.88,4.25s-.82-2.46-.49-5.07l1.17-10.5,1-10.5c0-.76.08-1.52.1-2.28l-.13-2.31c-.27,2.72-.64,5.42-1,8.13s-.7,5.41-1.1,8.1c-.86,5.38-1.63,10.75-2.65,16.07-.13.92-.44,1.67-.68,1.66s-.33-.79-.2-1.71c1.83-19,3.06-38.17,3.47-57.46-.39-3.19-.74-6.37-1.18-9.56L91,253.39l-.08,2.45q-.08,3.91,0,7.68c0,2.52,0,5,0,7.46l.27,14.54c.12,4.81.05,9.59,0,14.46s-.32,9.78-.79,14.84a1.42,1.42,0,0,1-.32,1c-.13,0-.2-.32-.14-.83.42-4.94.49-9.69.63-14.42s0-9.45,0-14.37c-.06-4.07,0-8-.17-11.92s-.28-7.7-.57-11.47c-.18,15.35.07,30.16-1,45.42a5.22,5.22,0,0,1-.31,1.74.59.59,0,0,1,.13.39,58.69,58.69,0,0,1,0,6.17,2.13,2.13,0,0,1-.27,1.11C88.27,317.82,88.18,317.56,88.17,317.1ZM54.55,52.18l-.21-.39L55.26,53l.11.26c.1.27.34.77.7,1.85l-.45-.92ZM31.73,40.39h0l-.79-1ZM107.13,174c-1-8.33-2-16.55-2.7-24.86.38,2,.77,4,1.11,6l.92,9.41C106.72,167.65,106.92,170.81,107.13,174ZM42.8,38.46c.89.88,1.64,1.71,2.31,2.5s1.18,1.63,1.71,2.4a29.37,29.37,0,0,1,3.95,2.87l2.53,2.16c.81.74,1.59,1.51,2.37,2.26,1.59,1.48,3,3.07,4.45,4.64-.14-.63.54.12.94.46s.78.73,1.15,1.11c-1.45-1.75-3-3.43-4.52-5.15l-2.42-2.49L54,48l-1.28-1.2c-1.55-1.45-3.19-2.94-4.92-4.31l-2.53-2.08C44.45,39.74,43.61,39.1,42.8,38.46ZM12,27.21,11.6,27l1-.34Zm-1.53.59.65.19A.47.47,0,0,1,10.45,27.81Zm5.87,1.94a5,5,0,0,0-.77-.49Zm-.4,15.52q1.3-.91,2.68-1.79-1.44.81-2.81,1.64Z" transform="translate(0 -2.3)"/><path class="cls-1" d="M162.48,16.68,162,17.79a10.6,10.6,0,0,1,.44-3.11c-4.16,11.79-5,28.19-3.71,38.7-.43,3.73.06,7.1.86,7.51s1.74-2.29,2.1-6c.18-.81.34-1.77.54-2.35.91-2.61,1.75-5.51,2.52-8.64s1.67-6.48,2.44-10L166,38c.46-2,.93-4,1.23-6.33l-.56.73c2.09-6.93,3.21-16.64,2.59-21.81s-3.21-3.92-5.63,3Z" transform="translate(0 -2.3)"/><path class="cls-1" d="M155.54,29.39c1.19-4.27,2.45-8.34,3.68-12.4l.41-.77-1.34.06.07.1a47.22,47.22,0,0,1,.08,7.56c-.08,1.44-.18,2.93-.31,4.44l-.31,4.52L157.74,35a3.45,3.45,0,0,0,.46,2c.56.57,1.38-1.2,1.83-3.93l.51-3.15A109,109,0,0,0,163,16.69c.65-4.53.86-8.7.16-11.05-.33-1.06-1.12-.34-1.75-.24-.8-.46-2.07,2.31-2.84,6.16s-.64,7.3.18,7.7l-.48,2-.07-1.6c.58,1.21.21,4.76.2,7.44-.14,1.32-.26,2.64-.34,4l2.3-1.94,0-2.07c-.11.14-.28.42-.29.4.06-4,0-7.7.38-12l.25-5.47c-.11-1.52-.7-1.48-1.34,0l-.87,2.3.45-1-1.07,4.1c-.33,1.38-.63,2.79-.94,4.18-.62,2.79-1.24,5.58-1.9,8.28a5.35,5.35,0,0,0-.13,2.4C155.06,30.62,155.34,30.28,155.54,29.39Z" transform="translate(0 -2.3)"/><path class="cls-1" d="M158.41,9.92a13.85,13.85,0,0,0,.83-3l-.06-.57-.66,1.67C158,9.26,158.12,9.94,158.41,9.92Z" transform="translate(0 -2.3)"/><path class="cls-1" d="M159.18,6.38l.28-.7-.28.45v.25Z" transform="translate(0 -2.3)"/><path class="cls-1" d="M185.94,243a360.42,360.42,0,0,0,22.23,46.16c.28.5.6.87.73.83s0-.47-.29-.93a362.77,362.77,0,0,1-22.16-46c-.22-.53-.49-.93-.63-1S185.75,242.52,185.94,243Z" transform="translate(0 -2.3)"/><path class="cls-1" d="M244.06,358.95c-.35-.26-.43-.16-.22.23a4.1,4.1,0,0,0,1,1.1c.29.21.4.1.22-.23A4.11,4.11,0,0,0,244.06,358.95Z" transform="translate(0 -2.3)"/><path class="cls-1" d="M234.08,362.45c-.89-.9-1.76-1.77-2.62-2.59s-1.65-1.63-2.46-2.35a4.64,4.64,0,0,1-.73-.93c-.07.24-.51,0-1.15-.67-12.64-12.86-24.58-28.24-35.46-44a1.76,1.76,0,0,1-.83-.44A18.81,18.81,0,0,1,186.7,306l-.95-1.87q-6.1-11.1-11.49-22.48a52.94,52.94,0,0,1-3-5.05L168.39,272l-2.71-4.78c-1.78-3.21-3.65-6.42-5.27-9.79.06.49,0,.82-.16.89-.46,0-1.44-1.43-2.21-3.3l-1.22-2.81,3.13,8.23c.16.39.28.77.4,1.1q2,4.39,4.14,8.86a315,315,0,0,0,21.06,36.44A376.51,376.51,0,0,0,210,339a4.37,4.37,0,0,1,.84,1.25c.07.27-.08.32-.41,0-2.88-3.09-5.72-6.06-8.56-9s-5.48-6-8.25-9.07a207.87,207.87,0,0,1-16.25-20.88c-1.66-2.35-3.19-4.79-4.74-7.21s-3.11-4.84-4.62-7.29l-4.39-7.44-2.19-3.74-2.07-3.81-4.12-7.67c-1.32-2.59-2.59-5.22-3.89-7.84-2.66-5.23-4.95-10.66-7.39-16.1-1.1-2.91-2.09-5.83-3.15-8.71l-1.57-4.3c-.52-1.43-1-2.88-1.47-4.31l-2.92-8.59-2.72-8.63-1.36-4.32c-.44-1.45-.83-2.91-1.25-4.37l-2.5-8.81-2.26-9-1.13-4.57-1-4.65c-7.33-33.69-9.64-66.48-8.31-100.07,0-1.58,0-3.14.15-4.66s.27-3,.44-4.43c.35-2.86.8-5.51,1.32-7.8,1.1-4.58,2.55-7.73,3.89-8.41,1.64-.78,2.84,2.17,3.36,7.31l.32-3,.76-4.73a56,56,0,0,1,1.3-6.08,27.41,27.41,0,0,1,1.68-4.44L129,30.44c2.51-4.14,5.35-10.92,8-14.1l.68.92.36-.8c1-2.66,2.06-4.38,3-4.87L142,12c1,.76,1.81,2.3,2.46,4.63.42,0,.78.32,1.07.94,1.28-1.7,2.45-2.39,3.37-.75.46-1.06.85-.81.89.55a11.25,11.25,0,0,1-.09,1.58h0c.35-.57.45-.74.85-1.51l.41-1.71c.64-2.89.68-2.88,1.29-5.37A22,22,0,0,1,153.69,7C155.85,5,155.85,5,156.53,5.47c0,.15.09.32.13.5l.81-2.48a6.8,6.8,0,0,1,.45-.85c.41,0,.41,0,.62-.3a.46.46,0,0,1,.32,0c.25,1.15.25,1.15.37,1.2a4.75,4.75,0,0,1,.11.64l-.15,2-1.52,2.47.25.64-.59.53.5-.27-.51,1.3L158,9.35c-.74,3.15-.74,3.15-1,4.43a16.2,16.2,0,0,0-.39,2.61.47.47,0,0,1,.25-.08L155.48,23c-.14.29-.28.52-.41.74a4.73,4.73,0,0,1-.09,1.64l-.35,1.74v.38h0c0,.61,0,1,0,1.51v.33l.09,6.52c-.18,1-.37,2-.57,2.89l.3-.83c.21-.53.53,0,.61-.28.43-1.8.84-3.64,1.23-5.52s.76-3.77,1.2-5.68c.85-3.82,1.6-7.72,2.48-11.57.21-1.4.67-2.66,1-2.81s.45.92.23,2.35c-.2,4-.38,8.23-.83,12.53l-.62,6.53q-.32,3.29-.75,6.6c-.31,2.2-.52,4.42-.8,6.61s-.57,4.39-.89,6.55c-.62,4.33-1.15,8.57-1.86,12.62-.47,4.28-.72,8.59-1.07,12.92l.22-.61c-.14,1.12-.3,2.24-.39,3.36l0,.36c.24-.85.48-1.69.76-2.53l.27-1.76c.35-5,.78-9.78,1.56-14.48l1.08-7c.38-2.35.84-4.7,1.24-7.08.45-2.57.9-4.94,1.45-7.27s1.16-4.61,1.71-7c.19-1.25.55-2.08.82-1.89s.31,1.37.12,2.59c-.19,2-.4,4.09-.63,6.17s-.37,4.19-.59,6.3l-1.32,12.58c-.45,4.13-1,8.16-1.48,12-.26,1.91-.54,3.76-.85,5.54l-.93,5.13a48.57,48.57,0,0,1-.7,8.24v.13l.61-1.84c-.16,2.23-.68,3.42-.82,5.46l.79-.76c-.1,5.5-.13,11.24.11,16.86.1,2.81.09,5.61.18,8.33s.11,5.39,0,8l0,1.18a139.43,139.43,0,0,1,2.76,13.81l-.35-5.23c.4,1.85.74,3.7,1.09,5.58s.72,3.78,1,5.78c.69,5.41,1.47,11.13,1.8,16.31s.6,9.73.15,12.82c.58,2.6,1.32,5.16,2,7.74s1.29,5.17,2.08,7.71c1.51,5.11,3,10.23,4.71,15.26,3.27,10.13,7.2,20,11.37,29.78a4,4,0,0,1,.54,2.24c-.17.19-.67-.38-1.13-1.38a310.63,310.63,0,0,1-16.55-43.24l1.18,4.74c.39,1.58.78,3.17,1.24,4.73l2.71,9.45c2,6.25,4,12.56,6.48,18.77l2,4.74c.68,1.56,1.29,3.12,1.85,4.71a309.76,309.76,0,0,0,23,45.13,346.45,346.45,0,0,0,24.77,34.74c13,16.2,26,29.9,40.16,44.72,1.94,1.91,3.38,4,3.16,4.7s-2-.37-3.95-2.3c-7.83-7.37-15.24-15.08-22.54-22.93l-5.33-6c-1.76-2-3.58-4-5.26-6.09-3.41-4.14-6.9-8.25-10.13-12.57-1.64-2.14-3.31-4.27-4.91-6.45l-4.73-6.62-2.36-3.33-2.25-3.41-4.5-6.87-4.28-7.06L201.29,285c-.71-1.19-1.35-2.42-2-3.63l-4-7.33c-1.3-2.48-2.52-5-3.77-7.52-2.21-4.33-4.12-8.71-6.09-13a.46.46,0,0,1-.18.21c-.3.14-.78-.14-1.33-.73,2.21,4.94,4.31,10,6.68,14.92,7.46,13.31,15.59,26.18,24.13,40,3,4.68,5.66,9.3,8.51,13.67l4.12,6.6,4.27,6.47,3.09,3.82c1,1.28,2.13,2.5,3.19,3.74l6.44,7.44c4.45,4.84,8.81,9.75,13.45,14.48a2.7,2.7,0,0,1,.75,1c0,.22-.24.09-.63-.28l-5-4.73c-1.66-1.61-3.26-3.28-4.9-4.95l-4.9-5-4.75-5.24c.64,1.4.81,2.4.32,2.65s-1.63-.32-3-1.48l4,5.06c.81,1.06,1.34,2,1.1,2.13s-1.12-.49-1.9-1.49c-2.75-3.45-5.54-6.86-8.23-10.33s-5.31-7-7.91-10.56c-6.42-8.38-12.67-16.87-18.41-25.77a7.19,7.19,0,0,1,.49,3.32h0c.89,1.39,1.75,2.78,2.68,4.12,8.81,12.17,18.32,24,28.19,35.61s20.22,23,31,34.07c.42.43.69.86.61,1s-.49-.16-.86-.56l-9.62-10.12c-3.12-3.45-6.31-6.82-9.4-10.27l0,0c.18.33.12.48-.22.23a4.48,4.48,0,0,1-1-1.1c-.21-.39-.08-.45.21-.24-11.52-12.86-22.5-26.06-32.78-39.58,9.08,12.9,18.79,25.31,28.85,37.43l3.73,3.61a3,3,0,0,1,.71,1.09c0,.17-.32,0-.66-.36l-1-1c1.88,2.32,3.06,4.35,2.52,4.76s-2.77-1.2-4.76-3.6l-4.14-4.69c-1.37-1.57-2.77-3.11-4.07-4.74-2.63-3.22-5.3-6.41-7.88-9.67l-1.73-2.07-1.9-2c3.74,5.29,7.78,10.34,11.7,15.48l6.1,7.52,3.06,3.75,3.15,3.66c.75.81,1.24,1.64,1.08,1.82s-.91-.35-1.66-1.16c-4.06-4-7.84-8.26-11.74-12.44-2-2.09-3.77-4.31-5.67-6.47s-3.79-4.32-5.58-6.57c-3.6-4.49-7.3-8.93-10.7-13.6-1.73-2.32-3.49-4.62-5.18-7l-5-7.13c-2.59-2.86-5-5.85-7.49-8.83l-3.73-4.51L188,300.26l1.48,2.6c1.56,2.77,3.31,5.35,5,7.92l2.55,3.8c.84,1.26,1.7,2.49,2.61,3.68,3.56,4.81,7.07,9.48,10.83,13.92,7.32,9,15.14,17.48,23.1,26.71a2,2,0,0,1,.63,1c0,.13-.41-.11-.82-.58-7.87-8.94-15.45-16.86-22.88-26.16l-4.59-5.7-4.35-5.7c-1.43-1.89-2.9-3.73-4.29-5.6l-4.14-5.59c10.18,15.82,21.7,29.74,33.76,43.77a7.65,7.65,0,0,1,1.24,1.74c.08,0,.23.08.42.25,1.71,1.59,3.46,3.41,5.31,5.22a3.07,3.07,0,0,1,.8,1.12C234.77,363,234.49,362.82,234.08,362.45ZM147.55,62.58l.17-.44-.35,1.57-1.11,2.15Zm-1-28v0l.7-1.21Zm23,173.79A206.62,206.62,0,0,1,163,181.2l1.78,6.53c.66,3.45,1.49,6.86,2.28,10.29l1.18,5.16ZM152.72,44.43a45.82,45.82,0,0,1-2.36,6.07c0,1.65-.19,3.35-.32,5.08-.35,4.65-.86,9.17-1.22,13.63.36-.56.28.51.3,1.05l0,1.68c.35-4.76,1-9.51,1.61-14.34l.41-3.32.49-3.36C152,48.69,152.33,46.48,152.72,44.43Zm3.34-33.14.2-.38.34,1Zm-.6-1.54-.19.66A.48.48,0,0,1,155.47,9.75Zm-1.75,6.08a5.72,5.72,0,0,0,.41-.83Zm-15.54,2.09,2.14,2.89-2-3.1Z" transform="translate(0 -2.3)"/><path class="cls-1" d="M7.81,149.72l.81.15a5.63,5.63,0,0,1-2.05.38,35.66,35.66,0,0,0,6.59.06c1.13-.07,2.27-.25,3.41-.36s2.29-.27,3.42-.46a59.79,59.79,0,0,0,12.25-3.35c2.51-.06,4.71-.77,4.9-1.64S35.41,143,32.85,143c-.57-.09-1.23-.09-1.65-.19a64.45,64.45,0,0,0-13.3-1.67l3,.47a31.67,31.67,0,0,0-4.47,0l.6.42c-.63-.08-1.28-.14-2-.17s-1.35,0-2,.07a32.47,32.47,0,0,0-4.13.57,19.77,19.77,0,0,0-6.69,2.45C-.93,147,.64,149.06,5.6,149.49Z" transform="translate(0 -2.3)"/><path class="cls-1" d="M17.32,153.42c-2.9-.25-5.69-.39-8.51-.63l-.58-.21.36,1.27,0-.09a21.21,21.21,0,0,1,4.67-1.9c.91-.27,1.87-.54,2.85-.77s2-.38,2.94-.55l1.38-.32a1.93,1.93,0,0,0,1.18-.82c.27-.66-1-1.13-2.87-1.06l-2.13.09c-5.23-.11-13.36,1.08-15.85,3.66-.56.6.11,1.16.34,1.73-.05.88,2,1.36,4.51,1.06s4.62-1.26,4.68-2.15h1.32l-1,.45c.62-.85,2.91-1.35,4.59-2,.85-.21,1.72-.33,2.58-.49l-1.71-1.88c-.45.12-.89.29-1.33.44a3.19,3.19,0,0,1,.31.18c-2.51.92-4.86,1.81-7.62,2.56l-3.42,1.24c-.9.52-.71,1.07.38,1.27l1.62.21-.74-.16c3.66-.06,7.48-.33,11.08-.35a2.5,2.5,0,0,0,1.52-.33C18.18,153.66,17.91,153.45,17.32,153.42Z" transform="translate(0 -2.3)"/><path class="cls-1" d="M4.69,155.44a6,6,0,0,0-2,0l-.33.21,1.19.18C4.39,156,4.78,155.71,4.69,155.44Z" transform="translate(0 -2.3)"/><path class="cls-1" d="M2.35,155.65l-.5-.08.35.14.09,0Z" transform="translate(0 -2.3)"/><path class="cls-1" d="M159.78,162.59c5.4,1.67,10.67,3.78,16,5.72s10.53,4.19,15.77,6.31c.35.15.68.18.75.06s-.17-.31-.5-.43c-5.25-2.14-10.42-4.48-15.76-6.34s-10.57-4.06-16-5.72c-.36-.11-.69-.11-.78,0S159.44,162.48,159.78,162.59Z" transform="translate(0 -2.3)"/><path class="cls-1" d="M231.19,206.78c-.27,0-.33.07-.14.28a1.6,1.6,0,0,0,.79.44c.23,0,.3-.1.14-.28A1.6,1.6,0,0,0,231.19,206.78Z" transform="translate(0 -2.3)"/><path class="cls-1" d="M224.26,214.18a30.39,30.39,0,0,0-4-1.41,1.62,1.62,0,0,1-.6-.35c0,.22-.36.24-.86.05-1.25-.45-2.48-1-3.76-1.42l-3.84-1.37c-2.56-.94-5.13-1.93-7.69-3s-5.2-1.93-7.81-2.88l-7.85-2.79a1.09,1.09,0,0,1-.61.25,8,8,0,0,1-3.85-.84l-1.07-.55-6.6-3-3.3-1.51c-1.09-.52-2.23-.93-3.34-1.4a18,18,0,0,1-3.34-.67l-6.22-1.15-3.11-.61-3.16-.52c.22.21.32.41.27.59-.21.4-1.24.44-2.34.1l-1.67-.45,4.67,1.7a4.13,4.13,0,0,1,.61.25c1.75.49,3.46,1.15,5.24,1.69,15.62,4.56,30.32,9.08,45,14.09a1.48,1.48,0,0,1,.76.43c.09.16,0,.28-.28.2q-1.8-.45-3.56-.84c-1.17-.27-2.33-.53-3.52-.71l-7-1.17c-2.35-.4-4.7-.84-7.12-1.37s-5-.92-7.61-1.57c-12.45-3.2-24.87-5.43-37.58-7.84-3.28-.78-6.52-1.48-9.74-2.14-1.61-.32-3.21-.65-4.82-.94l-4.86-.67-9.76-1.26-10.07-.82A470.88,470.88,0,0,0,46,188.93a28.13,28.13,0,0,1-9.14-.52,15.82,15.82,0,0,1-3.22-1.13,3.62,3.62,0,0,1-1.72-1.61c-.64-1.49.78-3.15,3.55-4.36-.57,0-1.12.06-1.68.09l-2.68-.06a15.25,15.25,0,0,1-6.2-1.25l-2-.9a31.58,31.58,0,0,0-4.81-2.45,21.1,21.1,0,0,1-4.54-2.38l.36-.87-.52-.16A5.37,5.37,0,0,1,10,171.62l0-1a6.42,6.42,0,0,1,2.05-3.49,1.53,1.53,0,0,1,.3-1.26c-1.27-.83-2-1.8-1.21-3.08-.73-.19-.68-.63.12-1a4.51,4.51,0,0,1,1-.29h0a10.12,10.12,0,0,0-1.09-.47H10l-3.48.15a10.14,10.14,0,0,1-2.35-.5c-1.8-1.51-1.8-1.51-1.68-2.29a3,3,0,0,1,.26-.25l-1.7-.11a3.57,3.57,0,0,1-.63-.2c-.12-.39-.12-.39-.36-.51a.68.68,0,0,1-.1-.29c.61-.54.62-.54.61-.67a2.38,2.38,0,0,1,.35-.27l1.23-.39,1.9.79.32-.41.48.42-.3-.41.92.14L4.46,156a22.36,22.36,0,0,0,2.92-.27,9.45,9.45,0,0,0,1.68-.3.62.62,0,0,1-.11-.22l4.42-.26a4.53,4.53,0,0,1,.54.22,2.06,2.06,0,0,1,1-.3l1.14-.08.24-.1v0l.94-.3.19-.07h0L21.53,153c.68,0,1.32,0,1.92,0l-.57-.15c-.37-.11-.08-.52-.28-.54a71,71,0,0,0-7.53-.2l-7.76.44c-.91.18-1.81.07-2-.22s.45-.68,1.39-.86a74.18,74.18,0,0,1,8.06-2.3,77.87,77.87,0,0,1,8.7-1.21c3-.27,5.92-.41,8.83-.45s5.77.29,8.49.58l8.58.16-.41-.18c.74.06,1.49.19,2.23.28h.24l-1.7-.71c-.39-.08-.78-.12-1.17-.17-3.33,0-6.52-.21-9.69-.46s-6.34-.63-9.59-.62c-3.5-.06-6.54-.46-9.89-.65-.85,0-1.47-.16-1.4-.45s.84-.56,1.67-.6c11-1.7,23.68-1.85,32.5.45a22.18,22.18,0,0,1,5.54.66h.09l-1.23-.6c1.5.15,2.29.64,3.66.85l-.5-.81c1.85.13,3.73.22,5.62.29s3.79.28,5.67.43a84.51,84.51,0,0,1,10.81,1.51l.78.11a50.43,50.43,0,0,1,9.45-.31l-3.48-.59a50.65,50.65,0,0,1,7.78.2,52.26,52.26,0,0,1,10.81,2.34,28.09,28.09,0,0,1,7.93,3.65c3.49.5,7,1.17,10.45,1.75s7,1.12,10.42,1.94l10.37,2.22,2.6.54,2.57.65,5.14,1.29c.71.17,1.29.51,1.35.78s-.52.34-1.23.17q-3.73-.75-7.45-1.56l-7.52-1.37-7.53-1.43-1.88-.37-1.9-.29-3.79-.58c2.08.52,4.16,1,6.23,1.53l6.21,1.75,6.25,1.7,3.14.84,3.13.95,3.25.83a27.06,27.06,0,0,1,3.14,1l4,1.16c1.33.38,2.64.77,3.93,1.23l7.77,2.61,3.91,1.28c1.31.42,2.63.82,3.92,1.32,2.61.94,5.25,1.86,8,2.76,2.31.78,4.57,1.49,6.77,2.25l6.47,2.42c4.28,1.62,8.65,3.07,13.13,5l9.36,3.86c1.55.61,3,1.33,4.52,2l4.44,2.14c2.94,1.46,5.91,2.88,8.8,4.49s5.72,3.4,8.61,5.22c1.57.91,2.75,2.18,2.59,2.8s-1.57.4-3.13-.51l-9.32-5c-3.13-1.62-6.34-3.07-9.49-4.61-6.26-3.16-12.78-5.77-19.21-8.6l-2.41-1.06c-.81-.34-1.64-.64-2.46-1l-4.92-1.93-4.92-2c-1.65-.65-3.27-1.37-5-1.94q-5-1.81-10.06-3.71c-1.69-.61-3.35-1.33-5.07-1.89l-5.15-1.77-8.79-3.09a.6.6,0,0,1,0,.26c-.1.32-.47.51-1,.61,3.28,1.18,6.56,2.44,9.84,3.74,2.37.64,4.77,1.19,7.12,1.94s4.71,1.52,7.07,2.32,4.74,1.66,7.12,2.56,4.69,2.08,7,3.22c3.22,1.61,6.28,3.15,9.16,4.9s5.64,3.56,8.44,5.35c1.91.88,3.86,1.67,5.74,2.61l5.64,2.83,5.66,2.85c.94.49,1.9.95,2.83,1.46l2.76,1.59a1.18,1.18,0,0,1,.62.55c0,.17-.18.17-.49,0-1.34-.61-2.66-1.27-4-1.87L233.73,202q-4.11-1.81-8.22-3.7c.64.8.89,1.51.56,2s-1.21.54-2.35.3l3.51,2c.72.43,1.18.94,1,1.17s-.85.12-1.53-.28l-3.57-2.05-1.79-1-1.83-.94-7.32-3.77-4.5-2c-1.49-.68-3-1.23-4.57-1.86L194,188.15a4,4,0,0,1,1.2,2h0l2.79,1.2a211.85,211.85,0,0,1,50.8,25.32c.32.2.53.45.46.56s-.37,0-.65-.14q-3.64-2.38-7.31-4.7l-3.68-2.29c-1.23-.76-2.45-1.52-3.73-2.19l0,0c.16.18.13.33-.14.28a1.75,1.75,0,0,1-.79-.44c-.19-.21-.09-.32.14-.28q-3.54-1.92-7.1-3.77c-2.38-1.22-4.71-2.51-7.17-3.54l-7.3-3.18-3.64-1.55-1.82-.76-1.86-.67c2.26.91,4.4,2.07,6.6,3.12l6.54,3.25,3.26,1.65,3.16,1.82q3.16,1.83,6.28,3.71l3,1.16a1.21,1.21,0,0,1,.61.53c0,.13-.24.14-.51,0l-.84-.34c1.58.94,2.52,2.13,2.14,2.7s-2.06.18-3.7-.77l-6.7-3.62-3.33-1.83c-.56-.3-1.1-.62-1.66-.91l-1.7-.84-1.52-.63-1.62-.46c1.72,1,3.46,1.87,5.15,2.86l5,3.1,5,3.1c1.65,1,3.32,2,4.9,3.19.57.35.95.82.83,1s-.67.1-1.24-.26c-.76-.4-1.5-.83-2.27-1.2l-2.32-1.12-4.63-2.26L220,208.77l-2.31-1.15-2.36-1-9.43-4.24-2.35-1.08c-.78-.36-1.6-.65-2.39-1l-4.8-2L189.54,197l-1.71-.34-1.74-.26-3.48-.54,1.62.67c3.49,1.28,6.78,2.68,10.11,3.82,1.66.58,3.31,1.14,5,1.68s3.31,1,4.91,1.66c6.44,2.39,13,4.51,19.44,8,.33.15.54.39.53.52s-.3.11-.62-.07c-6.3-3.27-12.61-5.16-19.14-7.69-2.68-1.1-5.43-1.89-8.07-2.77s-5.26-1.66-7.86-2.39c2.52,1.05,5.05,2,7.58,3l3.8,1.39,1.9.69,1.86.77,7.47,3.06c2.49,1,5,2,7.44,3.3a2.72,2.72,0,0,1,1,.73.38.38,0,0,1,.31,0,41.74,41.74,0,0,1,4.18,1.49,1.13,1.13,0,0,1,.64.51C224.79,214.27,224.58,214.28,224.26,214.18ZM39.37,156.37l-.29-.13,1,.2,1.44.91Zm-17.19,4.89h0l-.85-.47Zm112.38-1.72c-3-.78-6-1.3-8.92-2s-5.9-1.47-8.83-2.34l4.39.67,6.7,1.75C130.13,158.18,132.36,158.77,134.56,159.53Zm-107.28-6a21.14,21.14,0,0,1,4.16,1.39c.52-.11,1.05-.2,1.6-.27s1.1-.08,1.65-.09c3-.07,5.91-.07,8.79,0-.39-.33.3-.32.65-.37L45.2,154l-9.3-.38C33.06,153.46,30,153.66,27.28,153.51Zm-21.15,3.8-.28-.09.49-.59Zm-.76,1H5.8C5.68,158.52,5.52,158.47,5.36,158.3Zm4.07.07a2.58,2.58,0,0,0-.6-.19Zm4.78,14.51,1.16-2.75-1.3,2.67Z" transform="translate(0 -2.3)"/></g></g></svg>