<?xml version="1.0" encoding="UTF-8"?>
<svg width="368px" height="373px" viewBox="0 0 368 373" version="1.1" xmlns="http://www.w3.org/2000/svg" xmlns:xlink="http://www.w3.org/1999/xlink">
    <!-- Generator: Sketch 47 (45396) - http://www.bohemiancoding.com/sketch -->
    <title>Robot Arm</title>
    <desc>Created with Sketch.</desc>
    <defs>
        <rect id="path-1" x="91" y="375" width="133" height="49"></rect>
    </defs>
    <g id="Page-1" stroke="none" stroke-width="1" fill="none" fill-rule="evenodd">
        <g id="homepage" transform="translate(-1236.000000, 0.000000)">
            <g id="Robot-Arm" transform="translate(1421.000000, 201.500000) scale(-1, 1) rotate(-180.000000) translate(-1421.000000, -201.500000) translate(1236.000000, -11.000000)">
                <rect id="Rectangle-3" fill="#CBCBCB" transform="translate(119.000000, 334.000000) rotate(-38.000000) translate(-119.000000, -334.000000) " x="88" y="243" width="62" height="182"></rect>
                <g id="Rectangle-2">
                    <use fill="#CBCBCB" fill-rule="evenodd" xlink:href="#path-1"></use>
                    <rect stroke="#CBCBCB" stroke-width="9" x="95.5" y="379.5" width="124" height="40"></rect>
                </g>
                <g id="Group-3" transform="translate(190.471378, 166.130968) rotate(28.000000) translate(-190.471378, -166.130968) translate(93.471378, 30.130968)" fill="#CBCBCB">
                    <rect id="Rectangle-3" transform="translate(71.230886, 177.380508) rotate(29.000000) translate(-71.230886, -177.380508) " x="40.2308864" y="86.3805084" width="62" height="182"></rect>
                    <rect id="Rectangle-4" transform="translate(114.000000, 101.500000) rotate(210.000000) translate(-114.000000, -101.500000) " x="69" y="88" width="90" height="27"></rect>
                    <g id="Group-4" transform="translate(143.303432, 54.804052) rotate(349.000000) translate(-143.303432, -54.804052) translate(100.803432, 7.804052)">
                        <rect id="Rectangle-5" x="2.6595588" y="37.5636469" width="12" height="46.4423077" rx="6"></rect>
                        <rect id="Rectangle-5" transform="translate(38.659559, 25.448262) rotate(-120.000000) translate(-38.659559, -25.448262) " x="32.6595588" y="-14.9363531" width="12" height="80.7692308" rx="6"></rect>
                        <rect id="Rectangle-5" transform="translate(36.224267, 83.817965) scale(-1, 1) rotate(-80.000000) translate(-36.224267, -83.817965) " x="30.2242671" y="60.5968107" width="12" height="46.4423077" rx="6"></rect>
                        <rect id="Rectangle-5" transform="translate(65.483093, 47.853527) scale(-1, 1) rotate(-200.000000) translate(-65.483093, -47.853527) " x="59.4830931" y="7.4689119" width="12" height="80.7692308" rx="6"></rect>
                    </g>
                </g>
                <circle id="Oval" fill="#FFFFFF" cx="55.5" cy="254.5" r="55.5"></circle>
                <circle id="Oval" stroke="#CBCBCB" stroke-width="11" cx="56" cy="255" r="39.5"></circle>
                <circle id="Oval" fill="#CBCBCB" cx="56" cy="255" r="23"></circle>
                <g id="uchicago" transform="translate(308.260953, 88.321778) rotate(148.000000) translate(-308.260953, -88.321778) translate(268.260953, 37.321778)" fill-rule="nonzero">
                    <g id="Group" transform="translate(40.000000, 51.000000) scale(-1, 1) rotate(-180.000000) translate(-40.000000, -51.000000) ">
                        <g id="Shape">
                            <path d="M79.7146497,43.1766 L79.7115924,99.6132 C34.413758,103.984614 0.226242038,99.6132 0.226242038,99.6132 L0.226242038,43.1664 C3.83612739,4.91028 39.6356688,0.41667 39.9755414,0.47685 C46.3699363,1.632153 76.3826752,7.67295 79.7166879,43.17507" fill="#800000"></path>
                            <path d="M32.3652484,6.41099554 C30.3286624,6.40283554 27.8974777,6.76350754 25.1344713,7.83001954 C22.5341146,8.83369954 16.2046369,7.99281154 16.2046369,7.99281154 L16.2046369,32.4067155 C21.7551083,32.7845235 28.9846624,29.9232195 32.5633631,30.1610835 C36.2647643,30.4075155 39.4178854,32.1194835 39.4178854,32.1194835 L39.4178854,8.23108354 C39.4178854,8.23108354 36.8460637,6.42853954 32.3652484,6.41099554 Z M48.1875159,6.43465954 C44.2741401,6.55909954 40.5331975,8.31472354 40.5331975,8.31472354 C40.5401274,9.14255554 40.5331975,32.1378435 40.5331975,32.1378435 C40.5331975,32.1378435 42.9819108,30.1610835 48.0407643,30.1610835 C50.4947771,30.1610835 60.1436943,32.8110435 64.7949045,32.4936195 L64.7949045,8.20007554 C64.7949045,8.20007554 57.9464968,9.16989154 52.0234395,6.97974754 C50.8127389,6.53298754 49.4919745,6.39345154 48.1875159,6.43465954 L48.1875159,6.43465954 Z M8.51974522,12.3220995 C5.13671338,12.3220995 5.06456051,17.5090035 8.51974522,17.5090035 C11.9198981,17.5090035 11.9198981,12.3220995 8.51974522,12.3220995 Z M65.7447134,13.2735555 L65.7447134,17.8978275 C66.9431847,18.2523795 70.2287898,16.3763955 71.5373248,15.8027475 C72.4749045,15.3939315 73.7997452,15.6607635 73.8649682,16.1230275 C73.9057325,16.4196435 73.9342675,16.6305795 73.9546497,16.7672595 C73.9383439,16.6305795 73.9098089,16.4196435 73.8690446,16.1230275 C73.8690446,16.1230275 73.722293,13.3988115 70.8035669,13.3988115 C69.853758,13.3988115 68.7001274,14.5563075 65.7447134,13.2735555 L65.7447134,13.2735555 Z M12.066242,13.7109315 L12.066242,16.6770915 L15.0783185,16.6770915 L15.0783185,13.7109315 L12.066242,13.7109315 L12.066242,13.7109315 Z M8.52015287,22.6832595 C4.98547771,22.6832595 4.98547771,27.8677155 8.52015287,27.8677155 C11.9415032,27.8677155 11.9203057,22.6832595 8.52015287,22.6832595 L8.52015287,22.6832595 Z M65.6635924,22.8187155 L65.6635924,27.4429875 C65.6635924,27.4429875 68.2439745,27.4221795 71.1056306,25.5772035 C71.965758,25.0227315 73.2335287,25.2491715 73.8653758,25.7518275 L73.8694522,25.7518275 C73.8694522,25.7518275 73.4821911,22.7240595 70.9221911,23.0990115 C66.205758,23.7873075 65.6635924,22.8187155 65.6635924,22.8187155 L65.6635924,22.8187155 Z M12.0666497,24.0435315 L12.0666497,27.0100995 L15.0787261,27.0100995 L15.0787261,24.0435315 L12.0666497,24.0435315 L12.0666497,24.0435315 Z M40.0619618,35.1623475 C39.9315159,35.1619395 39.8002548,35.1709155 39.6661401,35.1900915 C38.9026242,35.2761795 37.974828,35.7270195 37.7436943,36.5344515 C37.2781656,36.9938595 37.2997707,35.7621075 36.3548535,36.3022995 C35.9525096,36.8494275 37.0017834,38.0550675 36.753121,38.1289155 C35.7230064,38.4422595 35.851414,36.5825955 35.2648153,36.5344515 C34.4189554,36.8347395 32.2877962,38.7845715 34.3826752,40.3284435 C34.3178599,39.2868195 36.2896306,38.1517635 36.9418599,40.4532915 C38.9193376,40.3023315 39.5858344,41.5018515 39.8296051,42.1803555 C42.7422166,42.7025955 41.9065478,44.6324355 41.8209427,44.6324355 C41.5478217,44.2162755 40.2926879,42.2823555 38.2402038,43.6205955 C37.7652994,43.9265955 36.9422675,44.2285155 36.5366624,43.8245955 C36.5766115,44.4733155 37.3935287,45.0567555 37.952,44.9017155 C39.7757962,44.4039555 40.2376561,46.1053155 38.8406624,46.5663555 C39.1398726,47.0314755 39.714242,47.0029155 40.2417325,46.6805955 C41.0260382,46.2032355 41.1197962,45.7789155 41.4051465,45.4892355 C41.8983949,47.8678755 38.8895796,48.1004355 37.929172,48.2432355 C38.0759236,48.7491555 38.4,48.8593155 39.0069809,49.0347555 C35.8306242,49.1449155 35.2069299,52.1273955 35.3940382,53.8491555 C36.1110828,53.9021955 37.2133503,52.3436355 37.1183694,53.2371555 C34.868586,55.6280355 34.1083312,58.8267555 35.293758,60.8626755 C35.8575287,60.6301155 36.0315924,60.0099555 36.2317452,59.4999555 C36.3173503,59.4428355 37.4722038,59.9569155 35.6263949,62.1723555 C35.4975796,62.7476355 34.8486115,64.4857155 36.2721019,64.9018755 C36.8150828,64.2653955 36.7355924,63.7023555 36.8542166,63.0495555 C37.2671592,62.8822755 37.5402803,64.2205155 37.3796688,64.6285155 C35.5240764,65.3955555 35.7548025,71.0953155 37.9043057,74.1553155 C36.9092484,71.9317155 37.0425478,69.0757155 37.9043057,66.7949955 C38.5683567,65.0324355 40.0264968,61.0748355 40.0652229,61.1197155 C40.8915159,62.1356355 41.9391592,66.5012355 41.9391592,68.3086755 C43.0968662,67.2968355 43.3251465,66.1952355 44.2749554,65.4485955 C44.7233631,67.0357155 44.9068025,68.0801955 45.2655287,69.4837155 C45.7261656,68.1169155 46.9450191,66.5705955 45.2043822,62.1397155 C45.5631083,61.8133155 46.2234904,63.6737955 46.4313885,63.5840355 C46.5903694,63.5228355 46.8268025,62.5925955 46.2357197,60.8626755 C45.0127898,59.7161955 44.7396688,58.0393155 44.9312611,57.9128355 C45.0861656,57.8108355 45.6364841,59.6549955 46.2887134,59.7447555 C46.4191592,58.3167555 46.7656561,56.8561155 46.6596688,55.7422755 C46.6352102,55.4525955 46.1582675,53.9756355 44.8048917,52.7557155 C44.0222166,52.0498755 43.7205605,50.5729155 43.7898599,50.2750755 C44.5480764,50.9727555 44.3809427,51.4868355 45.0250191,51.7683555 C45.2940637,51.1645155 45.1065478,48.9409155 44.327949,47.9657955 C43.8836178,47.2273155 44.0955924,47.3293155 44.6296051,47.7781155 C45.3266752,48.6063555 44.9924076,48.5410755 45.5916433,48.8878755 C46.9124076,45.7707555 45.7139363,45.1669155 45.8076943,44.9465955 C45.8892229,44.7466755 46.8268025,46.3990755 47.621707,45.7625955 C46.3254013,45.0771555 46.3580127,44.0326755 46.2112611,42.9065955 C46.1011975,42.0171555 45.5264204,41.6825955 45.7465478,41.4647235 C47.0428535,42.4414755 47.3975032,41.3590515 47.4382675,41.1419955 C47.1896051,41.2835715 46.0359745,41.4373875 45.8973758,39.6430035 C45.8403057,38.9359395 44.7559745,38.6238195 44.7559745,38.6238195 C45.4245096,38.4961155 47.5605605,38.3773875 47.0510064,36.2553795 C46.7901146,36.7551795 46.1582675,37.5450675 44.8293503,37.2349875 C44.8252739,37.2353955 45.6813248,37.0044675 45.5264204,36.0823875 C43.6023439,37.1627715 42.0166115,35.1656115 40.0619618,35.1623475 L40.0619618,35.1623475 Z M24.3526115,36.6715395 C24.0419873,36.6727635 23.6987516,36.7139715 23.320051,36.8012835 C21.8700637,37.1350275 17.8282803,39.2631555 17.2681783,36.9493875 C15.8124841,39.5312115 18.6932994,39.0799635 19.5628025,39.0269235 C19.2203822,39.2656035 18.786242,39.6523875 17.7125096,39.4214595 C15.4370446,40.9216755 7.12030573,46.2113955 4.71887898,47.5414755 C7.94252229,49.0429155 12.9035414,45.9135555 12.9744713,45.9135555 L13.033172,45.9706755 C13.0221656,48.3003555 6.48478981,51.6377955 3.68224204,53.1433155 C8.01263694,54.6365955 12.1106752,50.6177955 11.6186497,51.5929155 C11.0312357,52.7353155 5.7449172,57.3008355 3.44010191,59.7406755 C5.23536306,60.2343555 6.88346497,58.7859555 8.18466242,57.6761955 C9.60407643,56.4685155 11.9810446,53.4248355 11.6186497,54.9344355 C7.77620382,59.6794755 4.75149045,69.5408355 6.61523567,70.1732355 C7.68203822,67.9373955 12.1021146,56.5460355 12.3797197,56.5990755 C12.672,56.6561955 12.0328153,59.6060355 11.9353885,61.5603555 C11.7181146,65.8525155 11.6887643,67.8843555 12.6177834,72.1112355 C13.0951338,71.4584355 13.5549554,71.4706755 14.3103185,71.5237155 C14.4036688,71.1116355 14.3755414,71.2177155 13.9010446,70.5893955 C12.6724076,68.9655555 14.0836688,66.7460355 13.4942166,65.3914755 C13.0013758,64.2572355 12.7229554,65.1629955 12.4999745,63.9879555 C12.8452484,63.6737955 13.7591847,63.5758755 14.1350318,63.5187555 C14.5361529,59.1082755 16.0105987,56.8642755 15.4606879,59.6468355 C15.1790064,61.0544355 14.7501656,63.3922755 14.9535796,63.4616355 C15.1578089,63.5309955 15.1761529,63.5269155 15.3518471,63.6207555 C15.4325605,63.6656355 22.754242,51.6092355 18.6949299,59.9650755 C18.1625478,61.0585155 16.0008153,64.0083555 16.0008153,64.0083555 C16.5715159,64.5958755 17.1079745,65.2772355 17.1772739,65.6933955 C17.1956178,65.8035555 26.9884331,52.7924355 20.3181656,63.2780355 C19.909707,63.9185955 17.9073631,66.0687555 17.3961783,66.6929955 C17.3285096,66.7745955 17.5812484,69.1287555 17.5812484,69.1287555 C18.5987261,68.4229155 20.0552357,66.9989955 20.7339618,66.0932355 C20.6442803,64.7631555 20.9544968,64.9385955 21.0278726,63.6370755 C21.3384968,63.4371555 21.7432866,63.9920355 22.2340892,64.4326755 C22.4660382,64.6407555 28.956535,53.3309955 24.8854013,61.8133155 C24.2323567,63.1760355 22.7868535,64.7917155 22.7195924,64.9222755 C22.9939363,65.2160355 23.401172,66.1462755 23.8675159,67.2274755 C23.8858599,67.2723555 32.547465,54.7222755 27.2839745,64.2041955 C26.8694013,64.9508355 24.2612994,68.0924355 24.2943185,68.1740355 C24.9347261,69.7448355 25.4956433,71.2707555 25.4944204,71.2707555 C25.3358471,70.0467555 25.0867771,67.6354755 27.6215032,65.6485155 C27.9504713,67.8231555 28.5342166,67.9129155 29.2895796,68.5820355 C29.620586,68.8757955 30.2406115,70.1161155 30.3135796,69.0593955 C30.5292229,65.9667555 29.5256051,66.0442755 28.7775796,64.7305155 C28.5990318,64.4122755 28.632051,63.7064355 28.771465,63.7472355 C35.0096306,63.9349155 34.8025478,69.7815555 35.8436688,69.7774755 C35.3695796,68.2882755 35.2407643,66.8235555 35.8024968,65.6240355 C34.1307516,64.4367555 34.5494013,62.4089955 34.868586,61.5317955 C32.9905732,59.5856355 34.0683822,55.4525955 34.9656051,54.5794755 C33.757758,52.8209955 35.2476943,51.6214755 34.9272866,50.5402755 C34.4193631,46.7213955 31.0175796,47.8597155 30.2552866,44.2285155 C29.7233121,44.8731555 28.7404841,47.0722755 29.201121,47.8066755 C29.7298344,48.6430755 30.8643057,48.7165155 30.9323822,49.3325955 C30.9609172,49.5937155 31.045707,50.3240355 30.8581911,50.4790755 C30.213707,50.5933155 29.7758981,50.0017155 29.1151083,49.7405955 C27.7943439,49.2183555 24.5963822,51.4093155 24.4027516,49.4753955 C24.2804586,48.2554755 24.820586,49.1326755 24.7610701,48.0065955 C24.7076688,46.8437955 24.1218854,47.6638755 24.1137325,46.1624355 C24.1076178,45.0649155 25.432051,44.7181155 25.5278471,44.2774755 C25.7638726,43.1881155 27.7413503,45.8809155 28.9002803,43.0249155 C28.2272611,43.1187555 26.8596178,42.6454755 26.9888408,41.9804355 C27.3010955,40.3614915 27.3540892,36.6584835 24.3526115,36.6715395 Z M58.407949,36.6923475 C58.0899873,36.7017315 57.8087134,36.7478355 57.5722803,36.8396355 C56.8466752,37.1264595 56.7080764,37.0836195 55.9294777,37.6882755 C55.5870573,37.5442515 54.6372484,36.9359235 53.2920255,38.5577235 C52.8762293,39.0595635 52.3789045,39.6446355 52.3544459,40.0754835 C52.2932994,41.1607635 52.374828,40.1309715 52.6438726,41.1611715 C52.7498599,41.5932435 52.2606879,42.3843555 50.2836178,43.0493955 C49.5172484,43.3064355 49.7088408,44.0612355 49.7088408,44.0612355 C50.087949,43.8817155 50.6871847,43.4533155 51.612535,43.8898755 C53.4224713,44.7385155 53.777121,43.3961955 54.9022166,42.4414755 C54.9022166,42.4414755 54.5924076,43.6450755 54.9022166,43.7103555 C56.3045096,44.0000355 55.8357197,45.0526755 55.6604331,45.2117955 C53.8871847,46.7948355 54.6290955,47.3945955 53.9972484,48.3697155 C53.4020892,49.2917955 52.4808153,49.6426755 51.1070573,49.5977955 C49.2196688,49.5365955 53.5855287,46.6765155 49.4071847,45.4892355 C50.0634904,46.5826755 50.3284586,47.4639555 48.8650191,48.3125955 C47.9478217,48.8470755 48.412535,51.5684355 46.0522803,50.3077155 C46.0522803,50.3117955 45.8606879,52.3232355 45.5875669,52.4089155 C48.7957197,55.2200355 47.0020892,56.7541155 47.1651465,60.7729155 C48.167949,63.3269955 47.0673121,64.5469155 46.8145732,64.6856355 C46.9735541,66.4196355 47.1366115,67.3702755 48.2168662,68.7778755 C49.0036178,69.8019555 48.1475669,71.3727555 48.9465478,72.4661955 C49.6843822,69.8590755 50.4711338,70.9443555 50.6831083,67.3172355 C50.9766115,66.7093155 52.195465,65.6321955 52.8884586,65.5628355 C52.8803057,67.7537955 53.6833631,69.7448355 53.5121529,70.6669155 C53.5121529,70.6669155 55.3547006,70.3282755 55.9254013,70.5322755 C56.3778854,70.6873155 56.7284586,71.2829955 56.7406879,71.6461155 C56.1129172,72.0377955 56.1129172,71.8868355 55.1671847,72.5804355 C53.5121529,73.7840355 52.7498599,76.2442755 52.7498599,76.2483555 C52.7457834,76.2483555 56.6387771,73.1434755 56.9159745,72.5804355 C57.1401783,72.1357155 57.3521529,71.4543555 57.5559745,70.7485155 C57.5804331,70.6709955 55.5503694,69.4877955 54.9918981,68.4025155 C53.2553376,65.0161155 57.6904968,70.4057955 57.7924076,69.9365955 C58.0532994,68.7656355 58.868586,67.6640355 58.868586,67.6640355 C58.5873121,67.3294755 57.890242,67.1254755 56.8303694,65.2527555 C54.4048917,60.9809955 59.6431083,67.0805955 59.6431083,67.0805955 C61.0290955,66.2849955 61.0372484,67.3457955 61.212535,68.4718755 C61.2288408,68.5779555 63.5687134,70.3037955 63.6828535,70.4139555 C64.3432357,69.7978755 64.8242548,68.9614755 65.0932994,68.3902755 C65.1259108,68.3127555 60.8660382,64.5305955 60.1363567,63.2780355 C54.2622166,53.1963555 64.8894777,67.7537955 65.390879,67.3539555 C65.6721529,66.5624355 65.7699873,65.4812355 65.7373758,64.0083555 C65.7373758,63.9757155 63.7399236,62.5925955 62.4599236,60.4791555 C57.5233631,52.3232355 65.6966115,62.9149155 65.6966115,62.8373955 C65.5987771,61.0911555 64.167949,53.5145955 65.1585223,55.7912355 C65.664,56.9581155 67.2538089,61.8010755 66.9603057,66.7297155 C67.5106242,65.8361955 69.7893503,64.9222755 70.6535541,64.6978755 C70.4578854,57.3824355 65.9738089,49.2673155 67.1967389,50.7728355 C70.2499873,54.5509155 71.2283312,62.7353955 73.3236178,69.7897155 C73.3236178,69.7856355 74.6688408,70.4751555 74.3834904,61.5317955 C74.3223439,59.7161955 73.5845096,57.3089955 72.6876943,55.6280355 C70.9144459,52.3069155 67.3190318,46.7050755 67.4250191,46.6683555 C68.2892229,45.9584355 70.4008153,50.7891555 72.2352102,52.6904355 C73.4255287,53.9185155 76.7274395,55.1221155 76.9557197,54.9629955 C74.3060382,49.8221955 67.8897325,44.9792355 68.5582675,44.3794755 C73.2869299,48.8103555 74.7789045,49.0265955 74.9745732,48.7899555 L70.7187771,44.6528355 C69.5162293,43.0371555 67.9223439,41.7968355 68.1465478,41.8498755 C70.0461656,42.2701155 67.1559745,40.2684675 64.9261656,39.6580995 C64.5225987,39.5495715 63.8785223,39.5136675 63.8581401,39.3121155 C63.8214522,38.9681715 64.3799236,39.1150515 64.8487134,38.9681715 C65.1544459,38.8796355 65.4642548,38.6438115 65.4724076,38.2039875 C64.6204331,38.3916675 63.7480764,38.1933795 63.0183949,37.8620835 C61.795465,37.2937395 59.7857834,36.6507315 58.407949,36.6923475 L58.407949,36.6923475 Z M32.0485096,39.6189315 C32.0485096,39.6189315 30.6633376,40.6474995 31.2951847,41.7233955 C32.7353885,44.1877155 36.753121,41.1305715 38.9266752,42.6332355 C38.7261146,42.1844355 38.3849172,41.7560355 37.899414,41.5340835 C35.8775032,40.5695715 32.0061146,42.6495555 32.0485096,39.6189315 L32.0485096,39.6189315 Z M40.2633376,63.1964355 C36.0580892,69.8019555 39.5854268,77.5131555 39.3229045,77.4152355 C37.4962548,74.5592355 36.1661146,74.4449955 35.7682548,72.2499555 C35.5526115,71.0585955 33.385172,64.5224355 29.405758,64.4041155 C31.4121783,66.1340355 30.9274904,66.3747555 31.0603822,69.2062755 C29.7816051,76.3013955 39.6975287,77.0357955 39.0334777,80.7159555 C37.6739873,78.5331555 35.6003057,77.6151555 32.4753121,75.9137955 C31.0901401,74.8121955 29.5292739,74.3307555 29.4440764,72.6130755 C29.6099873,71.3645955 29.6813248,71.6216355 29.4681274,69.9977955 C29.3136306,68.8390755 28.1750828,69.5408355 27.3381911,67.1213955 C25.5482293,68.7411555 26.2037197,70.5771555 26.3492484,71.6257155 C26.3916433,71.9194755 26.5958726,73.0210755 26.3198981,73.6657155 C25.6819363,73.2291555 25.2416815,72.3233955 24.5307516,71.4135555 C23.2462675,69.7693155 23.2613503,67.7741955 22.6168662,66.3869955 C22.3192866,65.7423555 21.8924841,64.8692355 21.6417834,64.8569955 L21.5953121,64.8814755 C21.2818344,67.4600355 21.4347006,69.7121955 22.6025987,71.6461155 C22.6025987,71.6461155 22.2805605,72.2009955 22.0204841,72.3437955 C20.910879,72.0500355 19.3324841,71.1116355 18.6916688,69.3001155 C17.3105732,70.4629155 18.2901401,71.9643555 18.2245096,71.9398755 C15.1203057,70.3486755 18.2595669,64.1797155 13.8398981,64.3592355 C14.929121,65.5465155 14.2406115,67.0724355 14.1456306,68.5004355 C14.1207643,70.8097155 17.0562038,72.6089955 17.0562038,72.6089955 C13.782828,71.5033155 13.108586,73.0373955 13.1481274,73.0373955 C13.1481274,73.0373955 17.972586,75.1345155 25.5881783,75.9260355 C26.5669299,76.0321155 27.9639236,77.1785955 27.7323822,77.1785955 C26.7560764,77.1051555 24.8193631,75.8444355 22.0270064,78.3250755 C23.6681783,78.3699555 24.7953121,81.0464355 27.4694522,79.5082755 C34.3606624,77.5539555 36.9145478,80.9811555 38.0363822,81.8583555 C37.7958726,82.2908355 32.7406879,78.6800355 28.7274395,81.0749955 C26.5930191,82.3479555 23.1671847,81.1933155 20.4824459,79.1859555 C21.5671847,81.9562755 26.1829299,85.0733955 27.7050701,85.0774755 C29.5773758,85.0815555 31.9665732,82.6335555 34.6814777,82.7681955 C39.0277707,82.9844355 39.6327134,86.8685955 39.1512866,86.5666755 C39.1516943,86.5707555 35.7315669,80.9077155 31.3367643,86.9542755 C33.3896561,86.0117955 36.1375796,86.2525155 38.5426752,87.3949155 C38.8671592,87.5499555 37.9532229,88.5617955 37.3071083,89.2961955 C36.8847898,89.7735555 35.0512102,92.4949155 33.0684331,89.8184355 C32.7720764,89.4185955 31.8267516,86.9338755 25.6256815,87.4601955 C27.9675924,88.5169155 30.5528662,91.2913155 31.8296051,92.5561155 C35.0772994,95.7752355 39.9889936,88.6515555 40.1765096,89.4471555 C40.1765096,91.0465155 40.9975032,91.8257955 41.4296051,92.6907555 C42.5180127,94.8694755 40.0472866,94.5063555 38.708586,93.9433155 C38.708586,93.9433155 41.2706242,97.9417155 43.4189045,95.7181155 C45.795465,93.2537955 40.3069554,91.3933155 42.0492229,89.4308355 C43.0316433,88.3292355 46.4803057,91.8992355 48.0415796,91.9114755 C52.2566115,92.3806755 52.0364841,88.3741155 54.2622166,88.4924355 C52.1669299,86.3667555 49.9411975,87.5254755 49.4764841,88.0681155 C48.0741911,89.7082755 46.4436178,88.6066755 45.3185223,87.7253955 C44.6989045,86.9134755 43.6675669,86.7869955 42.746293,87.0317955 C42.3101146,87.0685155 43.630879,85.4854755 45.3511338,85.8200355 C49.2278217,86.5707555 53.1126624,85.1794755 54.0706242,84.6449955 C55.6278217,83.7637155 56.5042548,82.2785955 58.2489682,80.6180355 C57.7027261,80.7200355 54.4782675,82.5152355 53.4428535,83.0374755 C50.3366115,84.6041955 48.3921529,82.5764355 48.0456561,82.5845955 C47.4464204,82.6009155 47.6013248,82.1317155 48.5389045,81.8297955 C51.7225987,81.1198755 53.9238726,78.3046755 56.9648917,77.1989955 C60.3157197,75.6975555 64.5715159,76.7134755 67.4087134,73.9064355 C68.317758,73.1393955 68.8395414,71.8337955 70.0094777,71.4461955 C69.1248917,70.6383555 68.2606879,72.2499555 67.8082038,71.6950755 C68.619414,70.4057955 69.137121,69.4306755 69.2227261,67.8272355 C69.2675669,66.9581955 70.2703694,66.1544355 70.5068025,65.6770755 C69.5447643,65.8198755 66.9643822,67.3376355 66.4466752,68.2148355 C64.7141911,70.5077955 64.8038726,72.6538755 57.560051,75.8525955 C57.1972484,75.8525955 58.897121,74.6163555 59.3822166,73.1842755 C59.6104968,72.5151555 60.5643822,69.4061955 59.9080764,67.9047555 C58.407949,69.4265955 58.717758,69.9243555 58.2938089,71.0545155 C57.2135541,74.0165955 56.6224713,74.2981155 53.9197962,76.1259555 C53.5610701,76.3707555 51.4861656,79.5776355 48.7997962,79.7285955 C49.0688408,79.6551555 48.9139363,78.9860355 49.8229809,78.3903555 C52.835465,76.4197155 51.6859108,72.1561155 55.6196688,71.4461955 C53.6589045,70.7525955 52.317758,72.6579555 51.9590318,72.4661955 C53.5406879,70.2711555 52.1506242,68.4147555 52.3789045,66.6195555 C51.8530446,66.9010755 51.3231083,67.5416355 51.2741911,68.0720355 C50.9766115,71.2666755 49.4887134,71.8256355 49.3378854,73.2005955 C49.6517707,75.4772355 47.8255287,77.2520355 46.4843822,78.8513955 C46.2234904,77.5253955 46.5740637,76.3462755 48.2413248,75.2487555 C49.1625987,74.6449155 48.1557197,72.8252355 48.1557197,72.8252355 C47.7806879,74.8162755 46.6637452,75.4241955 45.9666752,75.5221155 C45.3633631,75.6077955 48.0986497,72.7395555 47.7806879,70.1161155 C47.6380127,68.9492355 47.3078217,69.4673955 47.1203057,68.1577155 C44.7559745,70.7811555 46.4843822,72.4090755 44.0670573,75.4364355 C42.9215796,76.8685155 42.4894777,79.3940355 42.3386497,79.4552355 C42.3631083,75.7016355 42.4854013,76.7991555 44.1526624,73.7473155 C45.5264204,71.2381155 44.0752102,68.8961955 43.8917707,67.3825155 C40.8874395,69.4510755 41.1361019,73.4453955 41.0586497,72.5804355 C40.9852739,71.7317955 40.6094268,70.2344355 41.0138089,68.8757955 C41.6823439,66.6277155 40.2633376,63.1964355 40.2633376,63.1964355 L40.2633376,63.1964355 Z M20.8293503,67.3988355 C19.6985478,68.5289955 19.3043567,68.5575555 19.3675414,69.0471555 C19.6227261,69.7407555 20.1196433,70.2262755 20.6512102,70.8178755 C21.3197452,71.3645955 21.5655541,71.8541955 21.0747516,70.2629955 C20.7730955,69.2062755 20.8460637,68.4392355 20.8293503,67.3988355 L20.8293503,67.3988355 Z M61.1432357,69.2062755 C61.1310064,69.4469955 61.1228535,69.4143555 61.0820892,69.6999555 C60.9842548,70.3609155 60.9842548,70.8790755 60.7763567,71.6297955 C60.7559745,71.7032355 61.5182675,72.0133155 61.8647643,72.3111555 C62.3539363,71.8541955 62.7941911,71.6257155 63.3078217,70.9810755 C63.1936815,70.9117155 61.1473121,69.1287555 61.1432357,69.2062755 L61.1432357,69.2062755 Z M60.6132994,72.2499555 C60.5888408,72.2458755 60.572535,72.2499555 60.5684586,72.2621955 C60.4380127,72.6049155 60.2668025,72.9965955 60.0385223,73.4535555 C59.8347006,73.8656355 60.450242,73.5718755 61.3959745,72.7395555 C61.3959745,72.7395555 60.7926624,72.2866755 60.6132994,72.2499555 Z M68.619414,73.4821155 C67.8815796,74.4490755 66.793172,75.2895555 65.7047643,75.7261155 C64.9383949,78.1537155 65.3011975,80.6629155 66.1898599,79.3695555 C67.461707,77.5498755 68.1873121,75.5955555 68.619414,73.4821155 Z M12.9883312,73.7105955 C13.4970701,75.4282755 13.8721019,76.9297155 14.8243567,78.7412355 C15.3677452,79.7734755 16.3130701,77.2846755 15.3449172,74.7509955 C14.5638726,74.4164355 13.7118981,74.2001955 12.9883312,73.7105955 Z" fill="#FFFFFF" transform="translate(40.197911, 51.401008) scale(-1, 1) rotate(-180.000000) translate(-40.197911, -51.401008) "></path>
                            <path d="M51.0124841,63.5388557 L50.4499363,64.0182557 L50.4621656,64.6959437 L50.8127389,65.0423357 L51.1592357,65.0423357 L51.5791083,64.6775837 L51.5791083,64.0900637 L51.0124841,63.5388557 L51.0124841,63.5388557 Z M48.8805096,64.2891677 C48.4280255,64.3014077 47.755414,64.3630157 47.4659873,64.4087117 C47.0828025,64.4670557 47.0828025,64.6543277 47.4048408,64.6934957 C47.7228025,64.7257277 47.783949,64.7922317 47.9510828,65.2218557 C48.1059873,65.6535197 47.3355414,67.6127357 47.1480255,68.0737757 C46.9197452,67.7379917 46.108535,65.9460557 46.108535,65.7028877 C46.108535,65.5286717 46.4672611,65.3540477 46.6221656,65.3124317 C46.9197452,65.2198157 46.9156688,65.0129597 46.6873885,64.9676717 C46.051465,64.8779117 43.8094268,64.6804397 43.4140127,64.6310717 C43.124586,64.6061837 42.9941401,64.9378877 43.3447134,64.9378877 C43.7034395,64.9476797 44.0743949,64.8411917 44.4698089,65.4168797 C44.922293,66.0680477 46.3408917,69.1260077 46.6833121,70.4116157 C46.8504459,70.1415197 48.2690446,66.0260237 48.3505732,65.5906877 C48.4484076,65.1643277 48.7500637,64.7477597 49.1658599,64.6241357 C49.5979618,64.5086717 49.5571975,64.3258877 49.2392357,64.2965117 C49.157707,64.2871277 49.0313376,64.2854957 48.8805096,64.2891677 L48.8805096,64.2891677 Z M55.0359236,64.6510637 C54.9829299,64.6571837 54.9217834,64.7057357 54.8850955,64.8105917 C54.7913376,65.0831357 54.0208917,66.1447517 53.2259873,66.4870637 C52.8142675,66.6486317 53.7233121,67.0256237 53.6621656,67.0084877 C53.6580892,68.0309357 53.8048408,69.5637917 54.0208917,70.1774237 C54.155414,70.5433997 54.5712102,71.1378557 54.8565605,70.9567037 C55.0440764,70.8400157 55.4435669,70.0452317 55.5699363,69.9440477 C55.7900637,69.7637117 55.5740127,69.4573037 55.3905732,69.6421277 C55.1867516,69.8208317 55.011465,69.5405357 54.9543949,69.3544877 C54.8850955,69.1725197 54.6975796,66.9244397 54.795414,66.8807837 C54.795414,66.8807837 56.6053503,66.6600557 56.7887898,66.6600557 C56.9110828,66.6600557 56.9151592,66.2638877 56.7887898,66.2638877 C56.5564331,66.2638877 55.0236943,66.2957117 54.9870064,66.2092157 C54.8728662,65.8799597 54.8443312,65.4805277 55.1092994,64.9244237 C55.190828,64.7514317 55.1215287,64.6412717 55.0359236,64.6510637 L55.0359236,64.6510637 Z M29.8256306,64.9937837 C29.2728662,65.0088797 27.9855287,65.6347517 27.7601019,67.2720557 C27.5432357,68.8424477 29.0168662,69.6923117 30.1843567,69.7392317 C30.5744713,69.7392317 31.0603822,69.2353517 31.301707,69.1170317 C31.8185987,68.8624397 31.6261911,68.6111117 31.0363312,68.7461597 C29.748586,69.0713357 29.1456815,68.0374637 29.0164586,67.7612477 C29.5374268,67.2283997 30.4232357,66.3573197 30.9625478,65.9142317 C30.6066752,65.5853837 30.4587006,65.0407037 29.8256306,64.9937837 Z M34.3366115,65.3809757 C33.4703694,65.3462957 32.4932484,66.1300637 32.174879,66.6225197 C31.7529682,67.2745037 32.2702675,67.8457037 32.8214013,68.2687997 C32.4696051,68.5707197 31.9800255,69.0362477 31.5267261,69.4609757 C31.7077197,69.6580397 32.6999236,70.1280557 33.2563567,70.1145917 C34.0977325,70.0958237 34.8755159,69.6617117 35.3549045,69.2761517 C36.2301146,68.5825517 35.926828,67.8461117 35.036535,67.3263197 C34.9513376,67.2749117 34.8694013,67.2594077 34.7850191,67.2434957 C35.3373758,66.8048957 35.8196178,66.4140317 35.943949,66.2602157 C35.5876688,66.0154157 35.1983694,65.4197357 34.3366115,65.3809757 L34.3366115,65.3809757 Z M29.3707006,65.5262237 C29.5170446,65.8868957 29.8888153,66.1467917 30.097121,66.2720477 C29.7306497,66.6298637 29.1607643,67.2761357 28.9235159,67.4511677 C28.5978089,66.4038317 28.7209172,66.0435677 29.3707006,65.5262237 L29.3707006,65.5262237 Z M26.5070064,65.5413197 C26.2958471,65.7171677 25.8103439,66.0088877 25.5396688,66.1594397 C25.3276943,65.9174957 25.0668025,65.9170877 24.6432611,65.5849757 C24.4088662,65.7644957 23.8887134,66.1459757 23.6090701,66.4854317 C24.1019108,66.6298637 24.4736815,66.6584237 24.5054777,67.0807037 C24.523414,67.4262797 24.4687898,69.5482877 24.4973248,69.9367037 C24.7614777,69.9950477 25.0843312,69.9685277 25.4593631,69.9497597 C25.4887134,69.6453917 25.4752611,66.9831917 25.4752611,66.6886157 C25.6167134,66.6094637 25.7618344,66.5319437 25.831949,66.4670717 C25.9872611,66.5857997 26.2954395,67.0350077 26.5436943,67.1818877 C26.7344713,67.0403117 27.224051,66.7302317 27.4335796,66.5188877 C27.6545223,66.3026477 27.4197197,66.1455677 27.2244586,66.3340637 C27.0781146,66.1590317 26.7059363,65.7759197 26.5070064,65.5413197 L26.5070064,65.5413197 Z M50.6578344,65.6257757 L50.3969427,65.6543357 L49.1984713,66.7086077 C49.0761783,66.8926157 49.3982166,66.8926157 49.5571975,66.6735197 L50.4295541,67.1733197 L50.466242,69.5127917 C50.531465,69.7926797 50.7638217,70.0631837 51.1103185,70.4091677 L51.8073885,70.4091677 L52.5574522,69.4348637 C52.0112102,69.3410237 51.7910828,69.2406557 51.4078981,68.8085837 L51.4242038,66.3907757 L50.6578344,65.6257757 L50.6578344,65.6257757 Z M22.5867006,65.8020317 C22.5182166,65.7963197 22.4476943,65.8301837 22.4448408,65.9183117 C22.429758,66.2410397 22.2389809,66.2691917 21.991949,66.1900397 C21.4791338,66.0366317 20.3434395,65.7926477 19.682242,66.1724957 C19.1009427,66.5143997 18.210242,67.3157117 18.2261401,68.3246957 C18.2432611,69.9848477 18.8702166,70.1243837 19.5970446,70.5711437 C20.2778089,70.9717997 21.218242,70.7127197 22.0787771,70.4642477 C22.4195669,70.3708157 22.4619618,70.5862397 22.626242,70.8285917 C22.9038471,71.2010957 23.128051,70.9628237 22.9299363,70.6613117 C22.853707,70.5637997 22.7089936,70.4079437 22.702879,70.2108797 C22.702879,70.0819517 22.7187771,68.7233117 22.7187771,68.5552157 C22.7187771,68.3944637 22.3987771,68.4115997 22.3987771,68.5552157 C22.3845096,68.7959357 22.4191592,69.2063837 22.2043312,69.5401277 C21.6087643,70.4613917 20.4759236,70.8408317 19.6797962,69.7114877 C19.4083057,69.3361277 19.3443057,68.7681917 19.3104713,68.3630477 C19.2566624,67.8220397 19.6659363,67.1219117 19.689172,67.0578557 C20.7033885,65.7289997 22.109758,66.7159517 22.2234904,67.2561437 C22.2989045,67.6168157 22.3796178,68.0586797 22.3796178,68.2904237 C22.3706497,68.4442397 22.7032866,68.4287357 22.7094013,68.2687997 C22.7094013,68.1035597 22.7187771,66.0615197 22.7187771,65.9183117 C22.7216306,65.8518077 22.6551847,65.8073357 22.5867006,65.8020317 L22.5867006,65.8020317 Z M33.4361274,66.1467917 C33.7068025,66.1839197 34.304,66.5041997 34.6606879,66.8371277 C34.582828,66.8995517 34.362293,67.0786637 34.1242293,67.2696077 C33.984,67.2936797 33.8405096,67.3099997 33.6941656,67.2912317 C33.2539108,67.2283997 33.0419363,66.8971037 32.8381146,66.6298637 C32.628586,66.3503837 33.1699363,66.1190477 33.4361274,66.1467917 Z M59.2264968,66.7710317 C59.1205096,66.7587917 59.030828,66.7612397 58.9492994,66.7714397 C58.362293,66.8599757 57.7589809,67.6184477 57.5633121,67.8722237 C57.4247134,68.0729597 57.4614013,68.3251037 57.5633121,68.4197597 C57.6815287,68.5152317 57.8364331,68.6115197 57.995414,68.7082157 C57.9709554,68.6923037 57.9424204,68.6755757 57.9138854,68.6641517 C57.6407643,68.9244557 57.2371975,69.6743597 57.2494268,70.1823197 C57.2535032,70.6931357 57.7141401,71.4344717 58.023949,71.7115037 C58.3663694,71.4475277 58.8718471,71.0036237 59.613758,70.8604157 C59.6952866,71.2182317 59.8664968,71.4344717 60.1518471,71.6372477 L61.1220382,70.5768557 C61.1220382,70.5768557 60.6899363,70.2378077 60.433121,69.9240557 C60.433121,69.7021037 60.433121,67.5780557 60.526879,67.4634077 C59.9806369,66.9754397 59.5444586,66.8069357 59.2264968,66.7710317 L59.2264968,66.7710317 Z M58.456051,67.4099597 C58.6028025,67.4099597 59.5607643,67.9224077 59.5322293,68.1925037 C59.5648408,68.3834477 59.5689172,68.7865517 59.5648408,69.1900637 C59.0878981,69.0195197 58.146242,68.5768397 57.8078981,68.2936877 C57.7141401,68.2218797 57.7059873,68.1802637 57.816051,68.0019677 C58.0361783,67.6788317 58.2807643,67.3964957 58.456051,67.4099597 L58.456051,67.4099597 Z M36.7783949,67.5972317 C36.5757962,67.5858077 36.2586497,68.1459917 37.4832102,68.0998877 C37.6748025,68.0925437 37.8166624,67.6567997 36.7783949,67.5972317 Z M33.7332994,68.0737757 C34.0255796,68.2063757 34.3231592,68.3385677 34.648051,68.5303277 C35.1168408,68.7959357 34.8759236,69.3014477 34.3700382,69.5352317 C33.856,69.7714637 32.9351338,69.1072397 32.792051,68.8338797 C32.9803822,68.6710877 33.3350318,68.3891597 33.7332994,68.0737757 Z M36.7641274,68.3328557 C36.5537834,68.3197997 36.2350064,68.7049517 37.4632357,68.8314317 C37.6540127,68.8534637 37.9100127,68.4022157 36.7641274,68.3328557 Z M58.1421656,68.7926717 C58.6028025,69.0505277 59.1408917,69.2765597 59.5648408,69.4124237 C59.5607643,69.7767677 59.548535,70.1052077 59.548535,70.2251597 C59.548535,70.3797917 59.5607643,70.5054557 59.5729936,70.6278557 C59.3243312,70.6413197 59.1082803,70.7078237 58.7903185,70.8604157 C58.5294268,70.6474397 57.8527389,69.8281757 58.3500637,68.9122157 C58.2807643,68.8705997 58.211465,68.8346957 58.1421656,68.7926717 L58.1421656,68.7926717 Z M31.7236178,70.5025997 C31.6702166,70.4956637 31.6176306,70.5535997 31.6090701,70.6804877 C31.5915414,70.9375277 31.2780637,70.8587837 31.0420382,70.8587837 C30.8023439,70.8534797 30.102828,70.7478077 29.4999236,71.0827757 C29.1159236,71.3059517 28.2374522,71.9942477 28.7290701,72.8200397 C29.0164586,73.3014797 30.7032866,73.6935677 31.1223439,73.9714157 C31.5438471,74.2468157 31.638828,74.9555117 31.2356688,75.2806877 C30.7342675,75.6788957 29.370293,75.3427037 29.1607643,75.1011677 C28.8839745,74.7955757 28.7783949,74.5434317 28.7205096,74.1888797 C28.6622166,73.8261677 28.3572994,73.8567677 28.3572994,74.1888797 C28.3572994,74.5193597 28.4355669,75.6540077 28.4958981,75.9204317 C28.5509299,76.1974637 28.8269045,76.1056637 28.8534013,75.8951357 C28.8843822,75.7005197 29.0131975,75.6438077 29.1950064,75.6287117 C29.5830828,75.5972957 30.2100382,75.8306717 30.9050701,75.7731437 C31.7313631,75.7135757 32.3803312,74.4320477 32.022828,73.4344877 C31.6905987,72.4871117 30.6360255,72.6535757 29.9259108,72.4271357 C29.2728662,72.2488397 29.0030064,71.8375757 29.7147516,71.3695997 C30.5524586,70.8285917 31.5915414,71.6968157 31.6910064,71.8795997 C31.8446879,72.1558157 31.9726879,72.1513277 31.9726879,71.7918797 C31.9947006,71.0081117 31.9221401,71.4516077 31.8446879,70.7131277 C31.8312357,70.5813437 31.7770191,70.5095357 31.7236178,70.5025997 L31.7236178,70.5025997 Z M26.9387006,70.7306717 C26.9134268,70.7400557 26.8869299,70.7739197 26.862879,70.8396077 C26.7544459,71.1076637 25.9872611,72.2986157 25.4919745,72.4940477 C25.0875924,72.6601037 25.1332484,72.7535357 25.3941401,72.8200397 C25.6004076,72.8600237 25.8144204,73.1072717 25.7752866,73.1044157 C25.7345223,74.0921837 25.6370955,75.3121037 25.944051,75.8298557 C26.1393121,76.1562557 26.6749554,76.4944877 26.9179108,76.2806957 C27.2012229,76.0542557 27.4099363,75.6723677 27.5252994,75.5826077 C27.7433885,75.4022717 27.5636178,75.2186717 27.3797707,75.3912557 C27.2334268,75.5356877 26.8477962,75.2003117 26.8310828,75.1778717 C26.7059363,75.0305837 26.5229045,73.1052317 26.6081019,73.0611677 C26.6081019,73.0611677 27.8322548,72.9102077 27.9928662,72.9130637 C28.1139363,72.9216317 28.130242,72.5311757 27.9997962,72.5242397 C27.8008662,72.5242397 26.8665478,72.6539837 26.8335287,72.5625917 C26.7821656,72.3585917 26.6562038,71.6719277 26.9631592,71.0827757 C27.0711847,70.8897917 27.0141146,70.7017037 26.9387006,70.7306717 L26.9387006,70.7306717 Z M36.4885605,70.7473997 L35.9598471,71.2239437 L35.9696306,71.8787837 L36.2928917,72.2104877 L36.6210446,72.2104877 L37.0140127,71.8555277 L37.0140127,71.2924877 L36.4885605,70.7473997 L36.4885605,70.7473997 Z M47.5964331,71.3169677 C47.5312102,71.3108477 47.4700637,71.3451197 47.4700637,71.4373277 C47.4700637,71.5642157 47.1887898,71.6380637 46.9156688,71.5642157 C46.3735032,71.3928557 44.7918471,71.6376557 44.0866242,72.0240317 C43.4588535,72.3822557 42.4968153,73.2080477 42.5090446,74.2447757 C42.5294268,75.9563357 43.2101911,76.1019917 43.9847134,76.5491597 C44.7225478,76.9657277 45.957707,76.8820877 46.8871338,76.6376957 C47.237707,76.5352877 47.4292994,76.5136637 47.4170701,76.8172157 C47.4170701,77.0073437 47.6820382,76.9661357 47.6820382,76.8249677 C47.6820382,76.6854317 47.6983439,75.2500877 47.6983439,75.0909677 C47.6983439,74.9122637 47.4374522,74.9383757 47.4374522,75.0909677 C47.4374522,75.3308717 47.4374522,75.4018637 47.2010191,75.7437677 C46.5650955,76.6891037 44.9671338,76.6503437 44.1110828,75.4948877 C43.8175796,75.1011677 43.5526115,74.5752557 43.8909554,74.4757037 C44.2292994,74.3724797 45.2565605,74.5858637 45.9332484,74.6429837 C46.3408917,74.6695037 47.2825478,74.7657917 47.4007643,74.8335197 C47.5026752,74.9122637 47.6616561,75.0101837 47.6616561,74.8057757 C47.6698089,74.6050397 47.6698089,73.9448957 47.6698089,73.7413037 C47.6698089,73.5434237 47.5189809,73.6380797 47.4048408,73.7082557 C47.2866242,73.7890397 46.2878981,73.9563197 45.8843312,74.0273117 C45.4807643,74.1019757 44.2374522,74.2027517 43.9113376,74.0917757 C43.5770701,73.9799837 43.6871338,73.3084157 43.9847134,72.9244877 C44.8529936,71.7771917 46.6017834,71.8571597 47.2336306,72.8110637 C47.4496815,73.1431757 47.4496815,73.2219197 47.4496815,73.4707997 C47.4496815,73.6209437 47.7024204,73.6384877 47.7024204,73.4707997 C47.7146497,73.3088237 47.7228025,71.5760477 47.7228025,71.4373277 C47.7228025,71.3695997 47.6575796,71.3230877 47.5964331,71.3169677 L47.5964331,71.3169677 Z M20.2928917,71.6221517 C19.6602293,71.8502237 18.7308025,72.4177517 18.3333503,73.0073117 C17.7597962,73.8861437 17.4446879,75.2717117 18.4393376,76.0832237 C18.9077197,76.4749037 19.2953885,76.7796797 20.2504968,76.6099517 C20.440051,76.2301037 20.5248408,76.1040317 20.8595159,75.6662477 C20.2015796,75.7727357 19.6940637,75.6540077 19.2130446,75.2900717 C18.2232866,74.5222157 18.5298344,73.2847517 18.8212994,72.8612477 C19.3553121,72.0680957 20.1147516,73.2023357 20.2504968,73.3561517 C20.4270064,73.1456237 20.7315159,72.8432957 21.0295032,72.6095117 C20.7343694,72.2194637 20.4934522,71.8575677 20.2928917,71.6221517 L20.2928917,71.6221517 Z M52.0071338,71.6837597 C51.8318471,71.8253357 51.2611465,72.4483517 50.9431847,72.6454157 C50.8698089,72.3026957 50.343949,71.9334557 49.9159236,71.8571597 C49.7814013,72.0052637 48.7785987,72.7702637 48.3220382,72.9930317 C48.1793631,73.0599437 48.2323567,73.3667597 48.4321019,73.2884237 C48.6155414,73.2076397 48.9253503,72.9730397 49.2840764,72.8024957 C49.6998726,72.9640637 50.1686624,73.3855277 50.2094268,74.2533437 C50.2501911,75.2117357 49.7528662,76.2178637 49.2107006,76.6727837 C50.1482803,76.4300237 50.2705732,75.8694317 50.7801274,75.2113277 C51.0654777,75.6307517 51.5913376,76.1374877 51.9745223,76.3565837 C52.2476433,76.1766557 53.0140127,75.3145517 53.1811465,75.1370717 C52.6267516,74.9893757 51.5587261,74.4242957 51.293758,73.8277997 C51.0858599,73.3851197 51.1347771,73.1766317 51.3426752,72.8277917 C51.5301911,73.0729997 52.8305732,73.6707197 53.4135032,72.6739757 C52.7735032,72.4410077 52.1987261,72.0215837 52.0071338,71.6837597 L52.0071338,71.6837597 Z M23.3669299,72.0175037 C22.8076433,72.0680957 21.998879,72.7233437 21.7579618,73.2867917 C21.660535,73.5124157 21.7987261,74.3247437 21.9018599,74.4136877 C21.9752357,74.4785597 22.0318981,74.5226237 22.0963057,74.5723997 C21.7282038,74.9138957 21.3841529,75.2056157 21.3947516,75.7131677 C21.4106497,76.2031757 21.7987261,76.6385117 22.3009427,76.8665837 C22.5699873,76.4573597 22.9890446,76.2064397 23.4386752,76.1007677 C23.4753631,76.4916317 23.5658599,76.7768237 23.8222675,76.9730717 C24.0061146,76.7694797 24.7419108,76.1338157 24.884586,75.9897917 C25.0398981,75.8429117 24.9237197,75.6666557 24.7419108,75.8425037 C24.6338854,75.9428717 24.3713631,75.7939517 24.2935032,75.6662477 C24.2935032,75.4520477 24.2935032,73.2015197 24.3876688,73.0987037 C24.0550318,72.7380317 23.7387006,71.9767037 23.3669299,72.0175037 L23.3669299,72.0175037 Z M34.3757452,72.1011437 C34.0109045,72.3337037 33.4487643,72.8126957 33.2054013,73.0142477 C32.9021146,73.2708797 32.280051,74.1578717 32.6232866,75.1085117 C32.9669299,76.0836317 33.7740637,76.3900397 34.3757452,76.4377757 C34.554293,76.1040317 34.8865223,75.5972957 35.0699618,75.3618797 C35.3406369,75.0020237 35.0646624,74.7849677 34.8755159,75.2003117 C34.729172,75.5193677 33.9481274,75.1705277 33.6656306,74.8979837 C33.2848917,74.5434317 33.048051,73.6135997 33.3509299,73.2867917 C33.6570701,72.9571277 34.0969172,73.1076797 34.6631338,73.0917677 C35.0361274,73.0725917 35.1156178,72.7286477 35.1796178,72.5527997 C34.9994395,72.4683437 34.729172,72.3153437 34.3757452,72.1011437 L34.3757452,72.1011437 Z M56.0550318,72.5291357 C55.6840764,72.7343597 54.0779618,73.5695357 53.9434395,74.5340477 C53.7477707,75.9563357 54.1961783,76.2398957 54.8198726,77.0220317 C55.1704459,77.4655277 55.7574522,77.4859277 56.0264968,77.4169757 C56.3159236,77.2178717 57.3676433,76.2170477 57.4817834,76.0917917 C57.5877707,75.9689837 57.4369427,75.8567837 57.3064968,75.9820397 C57.176051,76.1019917 57.2249682,76.1529917 57.0496815,76.1786957 C56.8743949,76.2080717 56.1569427,76.3284317 55.7411465,76.1109677 C55.2193631,75.8371997 54.5426752,75.1950077 54.6975796,74.4079757 C54.8117197,73.8269837 55.2193631,73.5895277 55.406879,73.4144957 C55.6718471,73.7086637 55.9368153,74.0407757 56.3363057,74.0407757 C56.7235669,74.0436317 57.1312102,73.8628877 57.2535032,73.7021357 C56.931465,73.4430557 56.2017834,72.6739757 56.0550318,72.5291357 Z M22.7587261,72.7090637 C22.8989554,72.7188557 23.4015796,73.3304477 23.3669299,73.5968717 C23.3926115,73.7445677 23.4040255,74.0167037 23.4105478,74.3018957 C22.7872611,74.7074477 22.5879236,74.6939837 22.1582675,74.2088717 C21.9450701,73.9612157 21.9646369,73.4936477 22.062879,73.3169837 C22.2565096,73.0130237 22.5964841,72.7062077 22.7587261,72.7090637 L22.7587261,72.7090637 Z M36.8118217,72.7600637 L36.5753885,72.7910717 L35.5530191,73.7347757 C35.2778599,73.9816157 35.5248917,74.0987117 35.8310318,73.8261677 L36.3581146,74.1484877 L36.3780892,76.3627037 C36.4323057,76.6274957 36.6638471,76.7197037 36.9895541,77.0554877 L37.5618854,76.5622157 L38.0155924,76.0734317 C37.5068535,75.9771437 37.5068535,76.0105997 37.2361783,75.7666157 L37.2561529,73.4161277 L36.8118217,72.7600637 L36.8118217,72.7600637 Z M60.0866242,72.9632477 C58.7414013,73.4434637 57.9057325,74.5091597 57.8690446,75.7690637 C57.844586,76.5055037 58.4723567,78.0248957 59.764586,78.0330557 C60.1640764,77.6495357 60.583949,77.2431677 61.0038217,76.9661357 C61.2687898,76.4867357 61.6601274,75.7115357 61.6315924,75.1211597 C61.5989809,74.3953277 61.1505732,73.3182077 60.0866242,72.9632477 Z M59.3121019,73.8885917 C59.915414,74.1109517 60.6206369,74.7041837 60.6817834,75.2496797 C60.7673885,75.9559277 60.5635669,76.7947757 60.1844586,77.2529597 C59.9357962,77.1313757 59.0226752,76.4275757 58.8147771,75.8894237 C58.5416561,75.1627757 58.5416561,74.3594237 59.3121019,73.8885917 Z M23.4170701,74.5817837 C23.4191083,74.9485757 23.4170701,75.2961917 23.4170701,75.4287917 C23.4134013,75.5503757 23.4174777,75.6535997 23.4195159,75.7637597 C23.2988535,75.7939517 23.1631083,75.8225117 22.9943439,75.9077837 C22.7656561,75.7131677 21.6813248,75.3586157 22.3914395,74.7849677 C22.8272102,75.0424157 22.9955669,74.8420877 23.4170701,74.5817837 Z M62.3571975,74.8759517 C62.1329936,74.8759517 62.0147771,75.1921517 62.2919745,75.2655917 C62.4672611,75.3145517 62.7974522,75.3733037 63.1113376,75.3883997 C63.3273885,75.4079837 63.2580892,75.0705677 63.0991083,75.0048797 C62.9319745,74.9408237 62.5814013,74.8759517 62.3571975,74.8759517 Z M62.3449682,75.6311597 C62.1126115,75.6311597 62.0025478,75.9338957 62.2756688,76.0179437 C62.4509554,76.0697597 62.7689172,76.1170877 63.0909554,76.1411597 C63.2988535,76.1668637 63.2295541,75.8245517 63.0746497,75.7596797 C62.9156688,75.7021517 62.5610191,75.6344237 62.3449682,75.6311597 L62.3449682,75.6311597 Z M31.1223439,76.7188877 C30.9711083,77.0171357 30.7265223,77.2904957 30.2817834,77.4944957 C30.5524586,77.7307277 30.9054777,78.0342797 31.138242,78.1876877 C31.4060637,77.8894397 31.6518726,77.6136317 31.960051,77.3223197 C31.6547261,77.2619357 31.3012994,77.1085277 31.1223439,76.7188877 Z M28.642242,77.2721357 C28.6043312,77.2802957 28.5631592,77.3312957 28.5334013,77.4345197 C28.4473885,77.7046157 27.805758,78.8898557 27.4282803,79.1652557 C27.1070573,79.4067917 27.8061656,79.7429837 27.7433885,79.7242157 C27.7690701,80.7148397 27.6247643,81.7340237 27.9614777,82.2374957 C28.1758981,82.5496157 28.8391338,82.7785037 28.9544968,82.4790317 C29.0661911,82.1771117 29.5700382,81.5622557 29.6829554,81.4582157 C29.8924841,81.2725757 29.707414,81.1032557 29.5317197,81.2860397 C29.1676943,81.6715997 28.9642803,81.4937117 28.6956433,81.2378957 C28.566828,81.0910157 28.5170955,79.7050397 28.6104459,79.6634237 C28.6104459,79.6634237 29.2785732,79.5663197 29.4391847,79.5663197 C29.5631083,79.5663197 29.5529172,79.1811677 29.4224713,79.1811677 C29.2219108,79.1811677 28.6255287,79.1872877 28.5912866,79.0930397 C28.5166879,78.9012797 28.7103185,77.9681837 28.7433376,77.5487597 C28.7608662,77.3635277 28.7058344,77.2582637 28.642242,77.2721357 L28.642242,77.2721357 Z M42.8107006,77.2823357 C42.8310828,77.7690797 43.0104459,81.9551597 42.9574522,82.5369677 C42.9248408,82.8690797 43.369172,83.2211837 43.7727389,83.4982157 C43.9724841,83.2595357 44.4005096,82.6328477 44.7551592,82.3696877 C44.9671338,82.1975117 44.8203822,82.0857197 44.6614013,82.1489597 C44.3393631,82.2982877 44.0173248,82.1815997 43.9847134,81.8103197 C43.9561783,81.4398557 43.9561783,77.8372157 43.9847134,77.3174237 C43.7401274,77.3174237 43.0430573,77.3043677 42.8107006,77.2823357 L42.8107006,77.2823357 Z M51.6198726,77.3884157 C51.566879,77.3920877 51.5057325,77.4385997 51.4690446,77.5397837 C51.3630573,77.8274237 50.7026752,78.5242877 50.0259873,78.8563997 C49.6428025,79.0473437 50.5396178,79.4010797 50.4784713,79.3851677 C50.466242,80.3986397 50.2624204,82.0555277 50.6089172,82.5814397 C50.8249682,82.9029437 51.3141401,83.1146957 51.6402548,82.9890317 C51.9541401,82.8629597 52.357707,82.2338237 52.4759236,82.1305997 C52.7123567,81.9555677 52.5126115,81.7695197 52.3169427,81.9506717 C52.1253503,82.1310077 51.5994904,82.0016717 51.5301911,81.8197037 C51.4771975,81.6295757 51.4078981,79.4178077 51.5016561,79.3733357 C51.5016561,79.3733357 52.1294268,79.3594637 52.3006369,79.3647677 C52.4310828,79.3647677 52.4392357,78.9628877 52.3087898,78.9628877 C52.0805096,78.9596237 51.5709554,78.9139277 51.5424204,78.8229437 C51.4690446,78.6144557 51.5587261,77.9412557 51.6932484,77.6674877 C51.7747771,77.4944957 51.7054777,77.3822957 51.6198726,77.3884157 L51.6198726,77.3884157 Z M21.0531465,77.9685917 C20.5729427,78.2913197 18.983949,78.9596237 18.7426242,80.6022317 C18.530242,82.1824157 20.0193631,83.1224477 20.7339618,83.4272237 C20.9141401,83.0632877 21.2793885,82.4741357 21.6385223,82.0612397 C21.9104204,81.7429997 21.6103949,81.6589517 21.3662166,81.9033437 C21.0364331,82.2640157 20.0527898,81.9212957 19.7918981,81.4459757 C20.2672102,81.0877517 21.5060382,80.0506157 22.0453503,79.6083437 C21.6894777,79.2750077 21.1391592,78.4447277 21.0531465,77.9685917 L21.0531465,77.9685917 Z M35.421758,78.1150637 C34.8730701,78.1709597 34.0520764,78.9567677 33.8755669,79.2142157 C33.7414522,79.4063837 33.9151083,80.3353997 34.0198726,80.4235277 C34.0492229,80.4447437 34.0626752,80.4520877 34.089172,80.4769757 C33.7210701,80.8560077 33.4483567,81.2746157 33.4528408,81.8021597 C33.4707771,82.3039997 33.6383185,82.8029837 34.1478726,83.0294237 C34.5995414,82.6964957 35.1808408,82.2921677 35.7409427,82.1864957 C36.0156943,82.5169757 36.4367898,82.7360717 36.6899363,82.9355837 C36.8652229,82.7242397 37.4241019,82.2701357 37.5785987,82.1289677 C37.725758,81.9788237 37.5785987,81.7678877 37.4241019,81.9657677 C37.3050701,82.1473277 36.9116943,82.0159517 36.7991847,81.8311277 C36.7991847,81.6173357 36.5949554,79.3602797 36.6854522,79.2562397 C36.3597452,78.8931197 35.7996433,78.0742637 35.421758,78.1150637 L35.421758,78.1150637 Z M47.5801274,78.2586797 C46.9890446,78.3076397 46.2389809,79.3398797 46.051465,79.6075277 C45.9047134,79.8009197 46.0596178,80.5398077 46.1696815,80.6324237 C46.2104459,80.6695517 46.2267516,80.6724077 46.2634395,80.7042317 C45.986242,80.9661677 45.4889172,81.6471197 45.5011465,82.1489597 C45.5092994,82.6626317 45.7538854,83.1559037 46.051465,83.4333437 C46.5610191,83.0787917 46.8749045,82.5904157 47.7187261,82.2652397 C47.8247134,82.6593677 48.1019108,82.7197517 48.4321019,82.9682237 C48.6277707,82.7536157 49.3452229,81.8711117 49.5042038,81.7168877 C49.6631847,81.5659277 49.5735032,81.4108877 49.3452229,81.5663357 C49.1210191,81.7172957 48.9661146,81.6242717 48.5870064,81.2183117 C48.5992357,80.9979917 48.5625478,79.1970797 48.6481529,79.0967117 C48.3057325,78.7262477 47.9877707,78.2207357 47.5801274,78.2586797 L47.5801274,78.2586797 Z M23.534879,78.3166157 C23.2258854,78.6087437 22.9825223,78.8747597 22.5308535,79.2317597 C22.7403822,79.4728877 23.0962548,79.7768477 23.128051,80.1917837 C23.1553631,80.6107997 23.1398726,82.5553277 23.1663694,83.0420717 C23.4965605,83.0420717 23.4378599,83.0767517 24.0052994,83.0551277 C23.9494522,82.7246477 23.9967389,80.2011677 23.9967389,79.8396797 C24.209121,79.6364957 24.2396943,79.6046717 24.4838726,79.4227037 C24.6595669,79.5769277 25.070879,79.6675037 25.070879,79.9384157 C25.070879,80.2101437 25.1511847,81.4080317 25.0553885,81.8507117 C24.937172,82.3904957 24.989758,82.7785037 25.2808153,83.3235917 C25.501758,83.0767517 26.3276433,82.4986157 26.5070064,82.3545917 C26.6835159,82.2011837 26.5913885,82.0861277 26.3627006,82.1489597 C26.1185223,82.2015917 26.0744968,82.2485117 26.0744968,82.0938797 C26.0744968,81.8025677 25.959949,80.4883997 25.9416051,79.6491437 C25.9114395,78.8078477 25.501758,78.5605997 25.2657325,78.4443197 C25.0252229,78.7119677 24.4875414,79.0501997 24.1655032,79.3231517 C23.9233631,79.1444477 23.8039236,78.7421597 23.534879,78.3166157 L23.534879,78.3166157 Z M31.6518726,78.3725117 L31.4060637,78.4067837 L30.3898089,79.3566077 C30.1207643,79.5920237 30.3580127,79.7054477 30.6710828,79.4451437 L31.3436943,79.7931677 L31.3595924,81.9441437 C31.4162548,82.2097517 31.6518726,82.2705437 31.9792102,82.6079597 L32.4019363,82.1767037 L32.8454522,81.6858797 C32.3469045,81.5940797 32.5788535,81.5981597 32.3151083,81.3553997 L32.3000255,79.3247837 L31.6518726,78.3725117 L31.6518726,78.3725117 Z M20.2794395,78.8906717 C20.4233376,79.2566477 20.8807134,79.9531037 21.0873885,80.0755037 C20.7315159,80.4325037 19.8587516,81.0245117 19.6129427,81.1975037 C19.1665732,80.6360957 18.9252484,79.7205437 20.2794395,78.8906717 Z M53.910828,78.9494237 C53.6743949,79.1909597 53.2585987,79.4692157 52.8713376,79.9008797 C53.1933758,79.9237277 53.4624204,79.9922717 53.6173248,80.3011277 C53.7722293,80.6067197 53.637707,81.8980397 53.6621656,82.3949837 C53.6866242,82.8780557 53.9801274,82.9808717 54.3633121,83.3807117 C54.7424204,83.2844237 55.8104459,82.8380717 56.169172,82.5912317 C56.1365605,82.9882157 56.6379618,83.4337517 56.931465,83.5202477 C57.1312102,83.3035997 57.3472611,83.1856877 57.6407643,82.9147757 C57.355414,82.7246477 57.3921019,82.6977197 57.2861146,82.3203197 C57.2005096,81.9559757 57.3064968,80.5769357 57.3146497,79.9853357 C57.0904459,79.6434317 56.7194904,79.2333917 56.3403822,78.9494237 C56.0713376,79.1934077 55.7126115,79.5202157 55.2886624,79.9661597 C55.6066242,79.9233197 56.226242,80.0497997 56.2547771,80.3145917 C56.2710828,80.6564957 56.3240764,81.4043597 56.2547771,81.9849437 C56.1814013,82.5696077 54.6119745,82.3019597 54.5875159,81.9074237 C54.5549045,81.5022797 54.6690446,80.3370317 54.6771975,79.7854157 C54.4529936,79.4443277 54.3225478,79.2558317 53.910828,78.9494237 L53.910828,78.9494237 Z M34.6146242,78.9869597 C34.7487389,78.9869597 35.5827771,79.4912477 35.5387516,79.7605277 C35.5705478,79.9531037 35.5550573,80.3154077 35.5334522,80.6707757 C35.1184713,80.6797517 34.7625987,80.5520477 34.3105223,80.1542477 C34.2245096,80.0820317 34.1437962,79.5663197 34.2420382,79.3990397 C34.4409682,79.0820237 34.4409682,78.9841037 34.6146242,78.9869597 L34.6146242,78.9869597 Z M46.9278981,79.1273117 C47.0828025,79.1371037 47.6820382,79.5491837 47.6535032,79.8274397 C47.6820382,80.0081837 47.6901911,80.3855837 47.6861146,80.7695117 C47.237707,80.8237757 46.9197452,80.8747757 46.4183439,80.4500477 C46.324586,80.3753837 46.3001274,79.6911677 46.4061146,79.5202157 C46.6221656,79.1909597 46.7566879,79.1273117 46.9278981,79.1273117 Z M59.3854777,79.5597917 C59.1205096,79.7401277 58.3582166,80.4369917 58.0361783,80.6205917 C58.5008917,80.6324237 59.1898089,80.7858317 59.2183439,81.2183117 C59.2346497,81.5683757 59.1898089,83.7540317 59.2183439,84.1538717 C59.4996178,84.2142557 59.8379618,84.1852877 60.2496815,84.1620317 C60.2700637,83.8523597 60.2619108,81.3325517 60.2700637,81.0269597 C60.4086624,80.9490317 60.5717197,80.8715117 60.6532484,80.8005197 C60.8122293,80.9196557 61.2973248,81.4790237 61.5785987,81.6291677 C61.7701911,81.4822877 62.2756688,81.0400157 62.4998726,80.8307117 C62.7322293,80.5985597 62.4794904,80.4500477 62.2756688,80.6381357 C62.1166879,80.4500477 61.684586,80.0910077 61.2973248,79.8172397 C61.0771975,80.0008397 60.6206369,80.3325437 60.3271338,80.4843197 C60.1110828,80.2399277 59.8216561,79.9008797 59.3854777,79.5597917 Z M34.4360764,80.7454397 C34.8168153,81.0020717 35.0336815,80.9694317 35.5134777,80.9225117 C35.4939108,81.1819997 35.4751592,81.4202717 35.4751592,81.5267597 C35.4751592,81.6422237 35.5224459,81.7336157 35.5546497,81.8311277 C35.3068025,81.9192557 34.9916943,81.9718877 34.7483312,82.0938797 C34.5282038,81.8992637 33.7169936,81.3447917 34.4360764,80.7454397 Z M46.6751592,81.0045197 C47.0053503,81.1893437 47.1724841,81.0755117 47.6820382,81.0196157 C47.6820382,81.3427517 47.6738854,81.6332477 47.6698089,81.7886957 C47.4456051,81.9502637 47.1684076,82.0914317 46.8504459,82.2493277 C46.597707,82.0404317 46.2267516,81.8617277 46.6751592,81.0045197 Z M40.3676943,91.8532397 C39.448051,91.8434477 38.6425478,92.4525917 38.6425478,92.5672397 C38.6425478,92.8781357 38.9690701,93.0364397 39.9001274,92.4501437 C39.1712611,93.2951117 40,93.9834077 40,93.9834077 C39.6967134,93.9381197 39.2637962,93.8357117 38.9870064,93.6774077 C38.9307516,93.9829997 39.3502166,94.0943837 39.5507771,94.2261677 C41.0945223,94.8618317 42.1095541,93.3750797 43.4670064,93.1131437 L43.4670064,93.0556157 C42.5579618,92.9246477 41.844586,92.2873517 41.0129936,91.9727837 C40.7969427,91.8911837 40.5796688,91.8556877 40.3676943,91.8532397 L40.3676943,91.8532397 Z M40.8703185,92.3901677 C41.2168153,92.4913517 42.0443312,92.9576957 42.3419108,93.1531277 L40.866242,93.8989517 C40.866242,93.8989517 41.2779618,93.4538237 41.2738854,93.1363997 C41.2738854,92.7047357 40.8703185,92.3901677 40.8703185,92.3901677 L40.8703185,92.3901677 Z" fill="#800000" transform="translate(40.521591, 78.960850) scale(-1, 1) rotate(-180.000000) translate(-40.521591, -78.960850) "></path>
                        </g>
                    </g>
                </g>
            </g>
        </g>
    </g>
</svg>